<svg xmlns="http://www.w3.org/2000/svg" xmlnsXlink="http://www.w3.org/1999/xlink" width="500" zoomAndPan="magnify" viewBox="0 0 375 374.999991" height="500" preserveAspectRatio="xMidYMid meet" version="1.0">
  <defs>
    <clipPath id="6bf017037f">
      <path d="M 257.417969 0 L 375 0 L 375 136.667969 L 257.417969 136.667969 Z M 257.417969 0 " clipRule="nonzero" />
    </clipPath>
  </defs>
  <path fill="#c2cddacd" d="M 143.605469 314.289062 C 139.6875 305.027344 134.847656 296.105469 129.214844 287.769531 C 123.652344 279.535156 117.265625 271.792969 110.234375 264.765625 C 103.207031 257.734375 95.464844 251.347656 87.230469 245.785156 C 78.894531 240.152344 69.972656 235.3125 60.710938 231.394531 C 51.261719 227.398438 41.371094 224.328125 31.3125 222.269531 C 21.046875 220.167969 10.511719 219.101562 0 219.101562 L 0 222.890625 C 10.257812 222.890625 20.539062 223.929688 30.554688 225.980469 C 40.363281 227.988281 50.015625 230.984375 59.238281 234.882812 C 68.269531 238.703125 76.976562 243.425781 85.113281 248.925781 C 93.148438 254.351562 100.699219 260.582031 107.558594 267.441406 C 114.417969 274.300781 120.648438 281.855469 126.074219 289.886719 C 131.574219 298.023438 136.296875 306.730469 140.117188 315.761719 C 144.015625 324.984375 147.011719 334.636719 149.019531 344.445312 C 151.070312 354.460938 152.109375 364.742188 152.109375 375 L 155.898438 375 C 155.898438 364.488281 154.832031 353.953125 152.730469 343.6875 C 150.671875 333.628906 147.601562 323.738281 143.605469 314.289062 " fillOpacity="1" fillRule="nonzero" />
  <path fill="#c2cddacd" d="M 151.671875 310.875 C 147.535156 301.097656 142.421875 291.671875 136.472656 282.863281 C 130.597656 274.167969 123.855469 265.992188 116.429688 258.570312 C 109.007812 251.144531 100.832031 244.402344 92.136719 238.527344 C 83.328125 232.578125 73.902344 227.464844 64.125 223.328125 C 54.140625 219.105469 43.691406 215.859375 33.070312 213.6875 C 22.226562 211.46875 11.101562 210.34375 0 210.34375 L 0 213.976562 C 10.855469 213.976562 21.738281 215.078125 32.339844 217.25 C 42.726562 219.375 52.945312 222.546875 62.710938 226.675781 C 72.273438 230.71875 81.488281 235.722656 90.101562 241.539062 C 98.605469 247.285156 106.597656 253.878906 113.859375 261.140625 C 121.121094 268.402344 127.714844 276.394531 133.460938 284.898438 C 139.277344 293.511719 144.28125 302.726562 148.324219 312.289062 C 152.453125 322.054688 155.625 332.273438 157.753906 342.660156 C 159.921875 353.261719 161.023438 364.144531 161.023438 375 L 164.65625 375 C 164.65625 363.898438 163.53125 352.773438 161.3125 341.929688 C 159.140625 331.308594 155.898438 320.859375 151.671875 310.875 " fillOpacity="1" fillRule="nonzero" />
  <path fill="#c2cddacd" d="M 159.742188 307.460938 C 155.386719 297.160156 150 287.234375 143.734375 277.960938 C 137.542969 268.800781 130.445312 260.191406 122.625 252.375 C 114.808594 244.554688 106.199219 237.457031 97.039062 231.269531 C 87.765625 225 77.839844 219.613281 67.539062 215.257812 C 57.019531 210.808594 46.015625 207.394531 34.828125 205.101562 C 23.40625 202.765625 11.691406 201.582031 0 201.582031 L 0 205.066406 C 11.457031 205.066406 22.9375 206.226562 34.128906 208.515625 C 45.089844 210.757812 55.875 214.109375 66.179688 218.464844 C 76.273438 222.734375 86 228.015625 95.089844 234.15625 C 104.066406 240.21875 112.5 247.175781 120.160156 254.839844 C 127.824219 262.5 134.78125 270.933594 140.84375 279.910156 C 146.984375 289 152.265625 298.726562 156.535156 308.820312 C 160.890625 319.125 164.242188 329.910156 166.484375 340.871094 C 168.773438 352.0625 169.933594 363.542969 169.933594 375 L 173.417969 375 C 173.417969 363.308594 172.234375 351.59375 169.894531 340.171875 C 167.605469 328.984375 164.191406 317.980469 159.742188 307.460938 " fillOpacity="1" fillRule="nonzero" />
  <path fill="#c2cddacd" d="M 135.535156 317.699219 C 131.839844 308.960938 127.269531 300.542969 121.953125 292.671875 C 116.703125 284.902344 110.675781 277.59375 104.042969 270.960938 C 97.40625 264.324219 90.101562 258.296875 82.328125 253.046875 C 74.457031 247.730469 66.039062 243.160156 57.300781 239.464844 C 48.378906 235.691406 39.046875 232.792969 29.558594 230.851562 C 19.867188 228.871094 9.921875 227.863281 0 227.863281 L 0 231.800781 C 9.660156 231.800781 19.335938 232.78125 28.769531 234.710938 C 38 236.601562 47.085938 239.417969 55.765625 243.089844 C 64.269531 246.6875 72.464844 251.136719 80.125 256.308594 C 87.6875 261.417969 94.796875 267.285156 101.253906 273.746094 C 107.714844 280.203125 113.582031 287.3125 118.691406 294.875 C 123.863281 302.535156 128.3125 310.730469 131.910156 319.234375 C 135.582031 327.914062 138.398438 337 140.289062 346.234375 C 142.21875 355.664062 143.199219 365.339844 143.199219 375 L 147.136719 375 C 147.136719 365.078125 146.128906 355.132812 144.148438 345.441406 C 142.207031 335.953125 139.308594 326.621094 135.535156 317.699219 " fillOpacity="1" fillRule="nonzero" />
  <path fill="#c2cddacd" d="M 167.808594 304.050781 C 163.234375 293.226562 157.574219 282.800781 150.992188 273.054688 C 144.492188 263.4375 137.03125 254.394531 128.820312 246.179688 C 120.605469 237.96875 111.5625 230.507812 101.945312 224.007812 C 92.199219 217.425781 81.773438 211.765625 70.949219 207.191406 C 59.902344 202.515625 48.335938 198.925781 36.582031 196.519531 C 24.585938 194.066406 12.277344 192.820312 0 192.820312 L 0 196.15625 C 12.054688 196.15625 24.136719 197.375 35.914062 199.785156 C 47.453125 202.148438 58.804688 205.671875 69.652344 210.257812 C 80.273438 214.753906 90.511719 220.308594 100.078125 226.769531 C 109.523438 233.148438 118.398438 240.472656 126.460938 248.539062 C 134.527344 256.601562 141.847656 265.476562 148.230469 274.921875 C 154.691406 284.488281 160.246094 294.726562 164.742188 305.347656 C 169.328125 316.195312 172.851562 327.546875 175.214844 339.085938 C 177.625 350.863281 178.84375 362.945312 178.84375 375 L 182.179688 375 C 182.179688 362.722656 180.933594 350.414062 178.476562 338.417969 C 176.074219 326.660156 172.484375 315.097656 167.808594 304.050781 " fillOpacity="1" fillRule="nonzero" />
  <path fill="#c2cddacd" d="M 183.945312 297.222656 C 178.929688 285.359375 172.726562 273.929688 165.507812 263.246094 C 158.386719 252.703125 150.210938 242.792969 141.210938 233.789062 C 132.207031 224.792969 122.296875 216.613281 111.753906 209.492188 C 101.070312 202.273438 89.640625 196.070312 77.777344 191.054688 C 65.660156 185.929688 52.984375 181.992188 40.09375 179.355469 C 26.945312 176.664062 13.457031 175.300781 0 175.300781 L 0 178.332031 C 13.253906 178.332031 26.539062 179.671875 39.488281 182.324219 C 52.179688 184.921875 64.664062 188.796875 76.59375 193.84375 C 88.277344 198.785156 99.535156 204.894531 110.058594 212 C 120.441406 219.015625 130.199219 227.070312 139.066406 235.933594 C 147.929688 244.800781 155.984375 254.558594 163 264.941406 C 170.105469 275.464844 176.214844 286.722656 181.15625 298.40625 C 186.203125 310.335938 190.078125 322.820312 192.675781 335.511719 C 195.328125 348.460938 196.667969 361.746094 196.667969 375 L 199.699219 375 C 199.699219 361.542969 198.335938 348.054688 195.644531 334.90625 C 193.007812 322.015625 189.070312 309.339844 183.945312 297.222656 " fillOpacity="1" fillRule="nonzero" />
  <path fill="#c2cddacd" d="M 192.015625 293.8125 C 186.777344 281.429688 180.300781 269.492188 172.769531 258.34375 C 165.332031 247.335938 156.800781 236.992188 147.402344 227.597656 C 138.007812 218.199219 127.664062 209.667969 116.65625 202.230469 C 105.507812 194.699219 93.574219 188.222656 81.1875 182.984375 C 68.539062 177.632812 55.304688 173.527344 41.851562 170.773438 C 28.125 167.964844 14.046875 166.539062 0 166.539062 L 0 169.417969 C 13.851562 169.417969 27.738281 170.824219 41.273438 173.59375 C 54.542969 176.308594 67.59375 180.359375 80.066406 185.636719 C 92.28125 190.800781 104.050781 197.1875 115.046875 204.617188 C 125.898438 211.949219 136.101562 220.363281 145.367188 229.632812 C 154.632812 238.898438 163.050781 249.097656 170.382812 259.953125 C 177.8125 270.949219 184.199219 282.71875 189.363281 294.933594 C 194.640625 307.40625 198.691406 320.457031 201.40625 333.726562 C 204.175781 347.261719 205.582031 361.148438 205.582031 375 L 208.460938 375 C 208.460938 360.957031 207.035156 346.875 204.226562 333.148438 C 201.472656 319.695312 197.367188 306.460938 192.015625 293.8125 " fillOpacity="1" fillRule="nonzero" />
  <path fill="#c2cddacd" d="M 175.878906 300.636719 C 171.082031 289.296875 165.148438 278.367188 158.25 268.152344 C 151.4375 258.070312 143.621094 248.59375 135.011719 239.988281 C 126.40625 231.378906 116.929688 223.5625 106.847656 216.75 C 96.636719 209.851562 85.703125 203.917969 74.363281 199.121094 C 62.78125 194.222656 50.660156 190.460938 38.339844 187.9375 C 25.765625 185.367188 12.867188 184.0625 0 184.0625 L 0 187.242188 C 12.652344 187.242188 25.339844 188.527344 37.699219 191.054688 C 49.816406 193.535156 61.734375 197.234375 73.125 202.050781 C 84.277344 206.769531 95.023438 212.601562 105.066406 219.386719 C 114.980469 226.082031 124.300781 233.769531 132.765625 242.234375 C 141.226562 250.699219 148.914062 260.019531 155.613281 269.933594 C 162.398438 279.976562 168.230469 290.722656 172.949219 301.875 C 177.765625 313.265625 181.464844 325.183594 183.945312 337.300781 C 186.472656 349.664062 187.757812 362.347656 187.757812 375 L 190.9375 375 C 190.9375 362.132812 189.632812 349.234375 187.0625 336.660156 C 184.539062 324.339844 180.777344 312.21875 175.878906 300.636719 " fillOpacity="1" fillRule="nonzero" />
  <path fill="#c2cddacd" d="M 127.46875 321.113281 C 123.992188 312.894531 119.695312 304.976562 114.695312 297.578125 C 109.757812 290.265625 104.089844 283.394531 97.84375 277.152344 C 91.605469 270.910156 84.734375 265.242188 77.421875 260.304688 C 70.023438 255.304688 62.105469 251.007812 53.886719 247.53125 C 45.5 243.984375 36.722656 241.261719 27.800781 239.433594 C 18.6875 237.570312 9.335938 236.625 0 236.625 L 0 240.714844 C 9.058594 240.714844 18.136719 241.632812 26.980469 243.441406 C 35.640625 245.214844 44.15625 247.855469 52.292969 251.300781 C 60.265625 254.671875 67.953125 258.84375 75.132812 263.695312 C 82.226562 268.488281 88.894531 273.988281 94.953125 280.046875 C 101.011719 286.105469 106.511719 292.773438 111.304688 299.867188 C 116.15625 307.046875 120.328125 314.734375 123.699219 322.707031 C 127.144531 330.84375 129.785156 339.363281 131.558594 348.019531 C 133.367188 356.863281 134.285156 365.941406 134.285156 375 L 138.375 375 C 138.375 365.664062 137.429688 356.3125 135.566406 347.199219 C 133.738281 338.277344 131.015625 329.5 127.46875 321.113281 " fillOpacity="1" fillRule="nonzero" />
  <path fill="#c2cddacd" d="M 119.398438 324.523438 C 116.144531 316.828125 112.117188 309.410156 107.433594 302.476562 C 102.808594 295.632812 97.5 289.195312 91.652344 283.347656 C 85.804688 277.5 79.367188 272.191406 72.523438 267.566406 C 65.589844 262.882812 58.171875 258.855469 50.476562 255.601562 C 42.621094 252.277344 34.398438 249.726562 26.042969 248.015625 C 17.507812 246.269531 8.746094 245.386719 0 245.386719 L 0 249.625 C 8.460938 249.625 16.933594 250.484375 25.191406 252.171875 C 33.273438 253.824219 41.226562 256.292969 48.824219 259.507812 C 56.269531 262.65625 63.441406 266.550781 70.148438 271.082031 C 76.769531 275.554688 82.996094 280.691406 88.652344 286.347656 C 94.308594 292.003906 99.445312 298.230469 103.917969 304.851562 C 108.449219 311.558594 112.34375 318.730469 115.492188 326.175781 C 118.707031 333.773438 121.175781 341.726562 122.828125 349.808594 C 124.515625 358.0625 125.375 366.539062 125.375 375 L 129.613281 375 C 129.613281 366.253906 128.730469 357.492188 126.984375 348.960938 C 125.273438 340.601562 122.722656 332.378906 119.398438 324.523438 " fillOpacity="1" fillRule="nonzero" />
  <path fill="#c2cddacd" d="M 70.984375 344.988281 C 69.046875 340.417969 66.652344 336.007812 63.867188 331.886719 C 61.117188 327.816406 57.960938 323.992188 54.484375 320.515625 C 51.007812 317.039062 47.183594 313.882812 43.113281 311.132812 C 38.992188 308.347656 34.582031 305.953125 30.007812 304.015625 C 25.339844 302.039062 20.449219 300.523438 15.480469 299.507812 C 10.414062 298.472656 5.207031 297.949219 0 297.949219 L 0 303.097656 C 4.859375 303.097656 9.722656 303.585938 14.449219 304.554688 C 19.085938 305.5 23.644531 306.914062 28.003906 308.757812 C 32.269531 310.566406 36.382812 312.796875 40.230469 315.398438 C 44.027344 317.964844 47.597656 320.914062 50.84375 324.15625 C 54.085938 327.402344 57.035156 330.972656 59.601562 334.769531 C 62.203125 338.617188 64.433594 342.730469 66.242188 346.996094 C 68.085938 351.355469 69.5 355.914062 70.445312 360.550781 C 71.410156 365.277344 71.902344 370.140625 71.902344 375 L 77.050781 375 C 77.050781 369.792969 76.527344 364.585938 75.492188 359.519531 C 74.476562 354.550781 72.960938 349.660156 70.984375 344.988281 " fillOpacity="1" fillRule="nonzero" />
  <path fill="#c2cddacd" d="M 79.054688 341.578125 C 76.898438 336.484375 74.230469 331.574219 71.128906 326.984375 C 68.066406 322.453125 64.550781 318.191406 60.679688 314.320312 C 56.808594 310.449219 52.546875 306.933594 48.015625 303.871094 C 43.425781 300.769531 38.515625 298.101562 33.421875 295.945312 C 28.21875 293.746094 22.773438 292.054688 17.242188 290.925781 C 11.597656 289.773438 5.796875 289.1875 0 289.1875 L 0 294.1875 C 5.460938 294.1875 10.925781 294.738281 16.238281 295.824219 C 21.449219 296.886719 26.574219 298.480469 31.472656 300.550781 C 36.269531 302.578125 40.894531 305.089844 45.214844 308.011719 C 49.484375 310.898438 53.496094 314.210938 57.144531 317.855469 C 60.789062 321.503906 64.101562 325.515625 66.988281 329.785156 C 69.910156 334.105469 72.421875 338.730469 74.449219 343.527344 C 76.519531 348.425781 78.113281 353.550781 79.175781 358.761719 C 80.261719 364.074219 80.8125 369.539062 80.8125 375 L 85.8125 375 C 85.8125 369.203125 85.226562 363.402344 84.074219 357.757812 C 82.945312 352.226562 81.253906 346.78125 79.054688 341.578125 " fillOpacity="1" fillRule="nonzero" />
  <path fill="#c2cddacd" d="M 87.121094 338.167969 C 84.746094 332.554688 81.808594 327.140625 78.390625 322.082031 C 75.015625 317.089844 71.140625 312.394531 66.871094 308.125 C 62.605469 303.859375 57.910156 299.984375 52.917969 296.609375 C 47.859375 293.191406 42.445312 290.253906 36.832031 287.878906 C 31.097656 285.453125 25.097656 283.589844 19 282.34375 C 12.777344 281.070312 6.386719 280.425781 0 280.425781 L 0 285.273438 C 6.058594 285.273438 12.125 285.886719 18.03125 287.09375 C 23.816406 288.277344 29.503906 290.042969 34.941406 292.339844 C 40.269531 294.59375 45.402344 297.382812 50.203125 300.625 C 54.941406 303.828125 59.398438 307.507812 63.445312 311.554688 C 67.492188 315.601562 71.171875 320.058594 74.375 324.796875 C 77.617188 329.597656 80.40625 334.730469 82.660156 340.058594 C 84.957031 345.496094 86.722656 351.183594 87.90625 356.96875 C 89.113281 362.875 89.726562 368.941406 89.726562 375 L 94.574219 375 C 94.574219 368.613281 93.929688 362.222656 92.65625 356 C 91.410156 349.902344 89.546875 343.902344 87.121094 338.167969 " fillOpacity="1" fillRule="nonzero" />
  <path fill="#c2cddacd" d="M 200.085938 290.398438 C 194.625 277.492188 187.878906 265.058594 180.027344 253.4375 C 172.28125 241.96875 163.386719 231.191406 153.597656 221.402344 C 143.808594 211.613281 133.03125 202.71875 121.5625 194.972656 C 109.941406 187.121094 97.507812 180.375 84.601562 174.914062 C 71.421875 169.339844 57.628906 165.058594 43.605469 162.191406 C 29.304688 159.261719 14.632812 157.78125 0 157.78125 L 0 160.507812 C 14.449219 160.507812 28.9375 161.96875 43.0625 164.859375 C 56.90625 167.695312 70.523438 171.921875 83.539062 177.425781 C 96.28125 182.816406 108.5625 189.480469 120.035156 197.234375 C 131.359375 204.882812 142.003906 213.664062 151.671875 223.328125 C 161.335938 232.996094 170.117188 243.640625 177.765625 254.964844 C 185.519531 266.4375 192.183594 278.71875 197.574219 291.460938 C 203.078125 304.476562 207.304688 318.09375 210.140625 331.9375 C 213.03125 346.0625 214.492188 360.550781 214.492188 375 L 217.21875 375 C 217.21875 360.367188 215.738281 345.695312 212.808594 331.390625 C 209.941406 317.371094 205.660156 303.578125 200.085938 290.398438 " fillOpacity="1" fillRule="nonzero" />
  <path fill="#c2cddacd" d="M 59.53125 375 C 59.53125 366.964844 57.957031 359.167969 54.851562 351.828125 C 51.851562 344.738281 47.5625 338.371094 42.09375 332.90625 C 36.628906 327.4375 30.261719 323.148438 23.171875 320.148438 C 15.832031 317.042969 8.035156 315.46875 0 315.46875 L 0 375 L 59.53125 375 " fillOpacity="1" fillRule="nonzero" />
  <path fill="#c2cddacd" d="M 95.191406 334.757812 C 92.597656 328.621094 89.386719 322.710938 85.652344 317.179688 C 81.960938 311.722656 77.730469 306.59375 73.066406 301.933594 C 68.40625 297.269531 63.277344 293.035156 57.816406 289.347656 C 52.289062 285.613281 46.378906 282.402344 40.242188 279.808594 C 33.980469 277.160156 27.425781 275.125 20.761719 273.761719 C 13.960938 272.371094 6.976562 271.667969 0 271.667969 L 0 276.363281 C 6.660156 276.363281 13.328125 277.035156 19.820312 278.363281 C 26.179688 279.664062 32.4375 281.605469 38.414062 284.132812 C 44.269531 286.609375 49.914062 289.675781 55.1875 293.238281 C 60.398438 296.761719 65.296875 300.800781 69.746094 305.253906 C 74.199219 309.703125 78.238281 314.601562 81.761719 319.8125 C 85.324219 325.085938 88.390625 330.730469 90.867188 336.585938 C 93.394531 342.5625 95.335938 348.820312 96.636719 355.179688 C 97.964844 361.671875 98.636719 368.339844 98.636719 375 L 103.332031 375 C 103.332031 368.023438 102.628906 361.039062 101.238281 354.238281 C 99.875 347.574219 97.839844 341.019531 95.191406 334.757812 " fillOpacity="1" fillRule="nonzero" />
  <path fill="#c2cddacd" d="M 111.328125 327.933594 C 108.292969 320.757812 104.539062 313.84375 100.171875 307.378906 C 95.859375 300.996094 90.90625 294.996094 85.457031 289.542969 C 80.003906 284.089844 74.003906 279.140625 67.621094 274.828125 C 61.15625 270.460938 54.242188 266.707031 47.066406 263.671875 C 39.738281 260.570312 32.074219 258.191406 24.28125 256.597656 C 16.324219 254.972656 8.15625 254.144531 0 254.144531 L 0 258.539062 C 7.859375 258.539062 15.734375 259.335938 23.402344 260.902344 C 30.910156 262.4375 38.296875 264.730469 45.351562 267.71875 C 52.269531 270.640625 58.933594 274.257812 65.160156 278.46875 C 71.3125 282.625 77.097656 287.394531 82.351562 292.648438 C 87.605469 297.902344 92.375 303.6875 96.53125 309.839844 C 100.742188 316.066406 104.359375 322.730469 107.28125 329.648438 C 110.269531 336.707031 112.5625 344.089844 114.097656 351.601562 C 115.664062 359.265625 116.460938 367.140625 116.460938 375 L 120.855469 375 C 120.855469 366.84375 120.027344 358.675781 118.402344 350.71875 C 116.808594 342.925781 114.429688 335.261719 111.328125 327.933594 " fillOpacity="1" fillRule="nonzero" />
  <path fill="#c2cddacd" d="M 103.261719 331.347656 C 100.445312 324.691406 96.964844 318.277344 92.914062 312.28125 C 88.910156 306.359375 84.320312 300.792969 79.261719 295.738281 C 74.207031 290.679688 68.640625 286.089844 62.71875 282.085938 C 56.722656 278.035156 50.308594 274.554688 43.652344 271.738281 C 36.859375 268.867188 29.75 266.660156 22.519531 265.179688 C 15.140625 263.671875 7.566406 262.90625 0 262.90625 L 0 267.449219 C 7.261719 267.449219 14.53125 268.183594 21.609375 269.632812 C 28.542969 271.050781 35.367188 273.167969 41.882812 275.925781 C 48.269531 278.625 54.421875 281.964844 60.175781 285.855469 C 65.855469 289.691406 71.199219 294.097656 76.046875 298.949219 C 80.902344 303.800781 85.308594 309.144531 89.144531 314.824219 C 93.035156 320.578125 96.375 326.730469 99.074219 333.117188 C 101.832031 339.632812 103.949219 346.457031 105.367188 353.390625 C 106.816406 360.46875 107.550781 367.738281 107.550781 375 L 112.09375 375 C 112.09375 367.433594 111.328125 359.859375 109.820312 352.480469 C 108.339844 345.25 106.132812 338.140625 103.261719 331.347656 " fillOpacity="1" fillRule="nonzero" />
  <path fill="#c2cddacd" d="M 62.914062 348.402344 C 61.199219 344.347656 59.078125 340.441406 56.605469 336.785156 C 54.167969 333.179688 51.371094 329.792969 48.289062 326.710938 C 45.207031 323.628906 41.816406 320.832031 38.210938 318.394531 C 34.558594 315.921875 30.652344 313.800781 26.597656 312.085938 C 22.457031 310.332031 18.125 308.988281 13.71875 308.089844 C 9.230469 307.171875 4.617188 306.707031 0 306.707031 L 0 312.011719 C 4.261719 312.011719 8.519531 312.4375 12.660156 313.285156 C 16.722656 314.113281 20.714844 315.351562 24.53125 316.96875 C 28.269531 318.550781 31.875 320.507812 35.242188 322.785156 C 38.570312 325.035156 41.695312 327.617188 44.539062 330.460938 C 47.382812 333.300781 49.964844 336.429688 52.214844 339.757812 C 54.492188 343.125 56.449219 346.730469 58.03125 350.46875 C 59.648438 354.285156 60.886719 358.277344 61.714844 362.339844 C 62.5625 366.480469 62.988281 370.738281 62.988281 375 L 68.292969 375 C 68.292969 370.386719 67.828125 365.769531 66.910156 361.28125 C 66.011719 356.875 64.667969 352.542969 62.914062 348.402344 " fillOpacity="1" fillRule="nonzero" />
  <path fill="#c2cddacd" d="M 305.011719 246.019531 C 296.6875 226.339844 286.398438 207.378906 274.429688 189.660156 C 262.625 172.183594 249.074219 155.761719 234.15625 140.84375 C 219.238281 125.925781 202.816406 112.375 185.339844 100.570312 C 167.621094 88.601562 148.660156 78.3125 128.980469 69.988281 C 108.875 61.484375 87.835938 54.953125 66.445312 50.578125 C 44.644531 46.113281 22.289062 43.851562 0 43.851562 L 0 44.691406 C 22.230469 44.691406 44.53125 46.949219 66.277344 51.398438 C 87.613281 55.765625 108.601562 62.277344 128.652344 70.761719 C 148.285156 79.066406 167.199219 89.328125 184.867188 101.265625 C 202.300781 113.042969 218.683594 126.558594 233.5625 141.4375 C 248.441406 156.316406 261.957031 172.699219 273.734375 190.128906 C 285.675781 207.800781 295.9375 226.714844 304.238281 246.347656 C 312.722656 266.402344 319.234375 287.386719 323.601562 308.722656 C 328.050781 330.46875 330.308594 352.765625 330.308594 375 L 331.148438 375 C 331.148438 352.710938 328.882812 330.355469 324.421875 308.554688 C 320.046875 287.164062 313.515625 266.125 305.011719 246.019531 " fillOpacity="1" fillRule="nonzero" />
  <path fill="#c2cddacd" d="M 296.933594 249.4375 C 288.828125 230.277344 278.8125 211.816406 267.160156 194.570312 C 255.667969 177.558594 242.476562 161.570312 227.953125 147.046875 C 213.433594 132.523438 197.441406 119.332031 180.429688 107.835938 C 163.183594 96.1875 144.722656 86.171875 125.566406 78.066406 C 105.992188 69.789062 85.511719 63.429688 64.6875 59.167969 C 43.464844 54.824219 21.699219 52.625 0 52.625 L 0 53.59375 C 21.632812 53.59375 43.332031 55.789062 64.492188 60.121094 C 85.253906 64.367188 105.671875 70.707031 125.1875 78.960938 C 144.289062 87.039062 162.691406 97.023438 179.886719 108.640625 C 196.847656 120.101562 212.789062 133.253906 227.269531 147.730469 C 241.746094 162.210938 254.898438 178.152344 266.359375 195.113281 C 277.976562 212.308594 287.960938 230.710938 296.039062 249.8125 C 304.296875 269.328125 310.632812 289.746094 314.878906 310.507812 C 319.210938 331.667969 321.40625 353.367188 321.40625 375 L 322.375 375 C 322.375 353.300781 320.171875 331.535156 315.828125 310.3125 C 311.570312 289.492188 305.210938 269.007812 296.933594 249.4375 " fillOpacity="1" fillRule="nonzero" />
  <path fill="#c2cddacd" d="M 288.855469 252.851562 C 280.972656 234.214844 271.230469 216.257812 259.894531 199.480469 C 248.714844 182.929688 235.882812 167.375 221.753906 153.246094 C 207.625 139.121094 192.070312 126.285156 175.519531 115.105469 C 158.742188 103.769531 140.785156 94.027344 122.148438 86.144531 C 103.109375 78.089844 83.183594 71.90625 62.929688 67.761719 C 42.28125 63.539062 21.109375 61.394531 0 61.394531 L 0 62.496094 C 21.035156 62.496094 42.132812 64.628906 62.710938 68.839844 C 82.890625 72.96875 102.746094 79.132812 121.71875 87.15625 C 140.292969 95.011719 158.183594 104.722656 174.902344 116.015625 C 191.394531 127.160156 206.898438 139.949219 220.976562 154.023438 C 235.050781 168.105469 247.839844 183.605469 258.984375 200.097656 C 270.277344 216.816406 279.988281 234.707031 287.84375 253.28125 C 295.867188 272.253906 302.03125 292.109375 306.160156 312.289062 C 310.371094 332.867188 312.503906 353.964844 312.503906 375 L 313.605469 375 C 313.605469 353.890625 311.460938 332.71875 307.238281 312.070312 C 303.09375 291.816406 296.910156 271.894531 288.855469 252.851562 " fillOpacity="1" fillRule="nonzero" />
  <path fill="#c2cddacd" d="M 313.089844 242.601562 C 304.546875 222.398438 293.984375 202.9375 281.699219 184.75 C 269.578125 166.8125 255.671875 149.953125 240.359375 134.640625 C 225.046875 119.328125 208.1875 105.421875 190.25 93.300781 C 172.0625 81.015625 152.597656 70.453125 132.398438 61.910156 C 111.757812 53.179688 90.160156 46.476562 68.203125 41.984375 C 45.824219 37.402344 22.878906 35.082031 0 35.082031 L 0 35.789062 C 22.832031 35.789062 45.730469 38.105469 68.0625 42.675781 C 89.972656 47.160156 111.527344 53.851562 132.121094 62.5625 C 152.28125 71.089844 171.707031 81.628906 189.851562 93.886719 C 207.753906 105.984375 224.578125 119.859375 239.859375 135.144531 C 255.136719 150.421875 269.019531 167.246094 281.113281 185.148438 C 293.371094 203.292969 303.910156 222.71875 312.4375 242.878906 C 321.148438 263.472656 327.839844 285.027344 332.324219 306.9375 C 336.894531 329.269531 339.210938 352.167969 339.210938 375 L 339.917969 375 C 339.917969 352.121094 337.59375 329.175781 333.015625 306.792969 C 328.523438 284.839844 321.820312 263.242188 313.089844 242.601562 " fillOpacity="1" fillRule="nonzero" />
  <path fill="#c2cddacd" d="M 345.398438 228.933594 C 335.972656 206.644531 324.320312 185.171875 310.765625 165.113281 C 297.398438 145.324219 282.054688 126.726562 265.167969 109.835938 C 248.273438 92.945312 229.675781 77.601562 209.886719 64.234375 C 189.824219 50.679688 168.351562 39.027344 146.0625 29.601562 C 123.292969 19.96875 99.460938 12.570312 75.238281 7.613281 C 50.546875 2.5625 25.234375 0 0 0 L 0 0.183594 C 25.222656 0.183594 50.523438 2.742188 75.199219 7.792969 C 99.414062 12.746094 123.230469 20.140625 145.992188 29.769531 C 168.269531 39.1875 189.734375 50.835938 209.785156 64.382812 C 229.566406 77.746094 248.15625 93.082031 265.039062 109.964844 C 281.917969 126.847656 297.253906 145.433594 310.617188 165.214844 C 324.164062 185.265625 335.808594 206.726562 345.230469 229.007812 C 354.859375 251.769531 362.253906 275.585938 367.207031 299.796875 C 372.257812 324.472656 374.816406 349.777344 374.816406 375 L 375 375 C 375 349.765625 372.4375 324.449219 367.382812 299.761719 C 362.429688 275.539062 355.03125 251.707031 345.398438 228.933594 " fillOpacity="1" fillRule="nonzero" />
  <path fill="#c2cddacd" d="M 337.320312 232.351562 C 328.113281 210.585938 316.738281 189.613281 303.5 170.023438 C 290.441406 150.695312 275.457031 132.53125 258.964844 116.039062 C 242.46875 99.542969 224.304688 84.558594 204.976562 71.5 C 185.386719 58.261719 164.414062 46.886719 142.648438 37.679688 C 120.410156 28.269531 97.136719 21.046875 73.480469 16.207031 C 49.367188 11.269531 24.644531 8.769531 0 8.769531 L 0 9.082031 C 24.625 9.082031 49.324219 11.582031 73.417969 16.511719 C 97.054688 21.351562 120.304688 28.566406 142.523438 37.964844 C 164.273438 47.164062 185.226562 58.535156 204.800781 71.761719 C 224.113281 84.804688 242.257812 99.777344 258.742188 116.261719 C 275.222656 132.742188 290.195312 150.886719 303.238281 170.199219 C 316.464844 189.773438 327.835938 210.726562 337.035156 232.472656 C 346.433594 254.695312 353.648438 277.945312 358.488281 301.582031 C 363.417969 325.671875 365.917969 350.375 365.917969 375 L 366.230469 375 C 366.230469 350.351562 363.726562 325.632812 358.792969 301.519531 C 353.953125 277.863281 346.726562 254.589844 337.320312 232.351562 " fillOpacity="1" fillRule="nonzero" />
  <path fill="#c2cddacd" d="M 321.167969 239.1875 C 312.402344 218.460938 301.566406 198.496094 288.964844 179.84375 C 276.53125 161.441406 262.265625 144.148438 246.5625 128.441406 C 230.851562 112.734375 213.558594 98.46875 195.15625 86.035156 C 176.503906 73.433594 156.539062 62.597656 135.8125 53.832031 C 114.640625 44.878906 92.484375 38 69.964844 33.394531 C 47.007812 28.691406 23.46875 26.3125 0 26.3125 L 0 26.886719 C 23.429688 26.886719 46.929688 29.265625 69.847656 33.957031 C 92.332031 38.558594 114.453125 45.421875 135.589844 54.363281 C 156.28125 63.113281 176.210938 73.929688 194.835938 86.511719 C 213.207031 98.921875 230.472656 113.167969 246.152344 128.847656 C 261.832031 144.527344 276.078125 161.792969 288.488281 180.164062 C 301.070312 198.785156 311.886719 218.71875 320.636719 239.410156 C 329.578125 260.546875 336.441406 282.667969 341.042969 305.152344 C 345.734375 328.070312 348.113281 351.570312 348.113281 375 L 348.6875 375 C 348.6875 351.53125 346.304688 327.992188 341.605469 305.035156 C 337 282.515625 330.121094 260.359375 321.167969 239.1875 " fillOpacity="1" fillRule="nonzero" />
  <path fill="#c2cddacd" d="M 280.777344 256.269531 C 273.113281 238.152344 263.644531 220.699219 252.628906 204.390625 C 241.757812 188.304688 229.285156 173.183594 215.550781 159.449219 C 201.816406 145.714844 186.695312 133.242188 170.609375 122.371094 C 154.300781 111.355469 136.847656 101.886719 118.730469 94.222656 C 100.226562 86.394531 80.859375 80.382812 61.171875 76.355469 C 41.101562 72.25 20.519531 70.164062 0 70.164062 L 0 71.398438 C 20.4375 71.398438 40.9375 73.472656 60.925781 77.5625 C 80.53125 81.574219 99.820312 87.5625 118.25 95.359375 C 136.292969 102.988281 153.675781 112.421875 169.917969 123.394531 C 185.941406 134.21875 201.003906 146.644531 214.679688 160.320312 C 228.355469 173.996094 240.78125 189.058594 251.605469 205.082031 C 262.578125 221.324219 272.011719 238.707031 279.640625 256.75 C 287.4375 275.179688 293.425781 294.46875 297.4375 314.074219 C 301.527344 334.0625 303.601562 354.5625 303.601562 375 L 304.835938 375 C 304.835938 354.480469 302.75 333.898438 298.644531 313.828125 C 294.617188 294.140625 288.605469 274.777344 280.777344 256.269531 " fillOpacity="1" fillRule="nonzero" />
  <path fill="#c2cddacd" d="M 208.152344 286.988281 C 202.472656 273.5625 195.453125 260.625 187.285156 248.535156 C 179.226562 236.605469 169.976562 225.390625 159.792969 215.207031 C 149.609375 205.023438 138.394531 195.773438 126.464844 187.714844 C 114.375 179.546875 101.4375 172.527344 88.015625 166.847656 C 74.300781 161.046875 59.953125 156.59375 45.363281 153.609375 C 30.484375 150.5625 15.222656 149.019531 0 149.019531 L 0 151.59375 C 15.050781 151.59375 30.136719 153.121094 44.847656 156.128906 C 59.269531 159.082031 73.453125 163.484375 87.011719 169.21875 C 100.285156 174.832031 113.074219 181.773438 125.023438 189.847656 C 136.820312 197.816406 147.902344 206.960938 157.972656 217.027344 C 168.039062 227.097656 177.183594 238.179688 185.152344 249.976562 C 193.226562 261.925781 200.167969 274.71875 205.78125 287.988281 C 211.515625 301.542969 215.917969 315.730469 218.871094 330.152344 C 221.878906 344.863281 223.40625 359.953125 223.40625 375 L 225.980469 375 C 225.980469 359.777344 224.4375 344.515625 221.390625 329.636719 C 218.40625 315.046875 213.953125 300.699219 208.152344 286.988281 " fillOpacity="1" fillRule="nonzero" />
  <path fill="#c2cddacd" d="M 329.242188 235.769531 C 320.257812 214.523438 309.152344 194.054688 296.234375 174.933594 C 283.488281 156.066406 268.863281 138.339844 252.761719 122.238281 C 236.660156 106.136719 218.933594 91.511719 200.066406 78.765625 C 180.945312 65.847656 160.476562 54.742188 139.230469 45.753906 C 117.527344 36.574219 94.8125 29.523438 71.722656 24.796875 C 48.1875 19.980469 24.054688 17.539062 0 17.539062 L 0 17.984375 C 24.027344 17.984375 48.125 20.425781 71.632812 25.234375 C 94.695312 29.953125 117.378906 36.996094 139.058594 46.164062 C 160.277344 55.140625 180.71875 66.230469 199.820312 79.136719 C 218.660156 91.863281 236.367188 106.472656 252.449219 122.550781 C 268.527344 138.632812 283.136719 156.339844 295.863281 175.179688 C 308.769531 194.28125 319.859375 214.722656 328.835938 235.941406 C 338.003906 257.621094 345.046875 280.304688 349.765625 303.367188 C 354.574219 326.871094 357.015625 350.972656 357.015625 375 L 357.460938 375 C 357.460938 350.941406 355.015625 326.8125 350.199219 303.277344 C 345.476562 280.1875 338.425781 257.476562 329.242188 235.769531 " fillOpacity="1" fillRule="nonzero" />
  <path fill="#c2cddacd" d="M 240.425781 273.335938 C 233.867188 257.828125 225.757812 242.882812 216.324219 228.917969 C 207.015625 215.140625 196.332031 202.191406 184.570312 190.429688 C 172.808594 178.667969 159.859375 167.984375 146.082031 158.675781 C 132.117188 149.242188 117.175781 141.132812 101.664062 134.574219 C 85.820312 127.871094 69.242188 122.726562 52.390625 119.277344 C 35.203125 115.761719 17.578125 113.976562 0 113.976562 L 0 115.945312 C 17.445312 115.945312 34.9375 117.714844 51.992188 121.207031 C 68.71875 124.628906 85.175781 129.734375 100.898438 136.386719 C 116.289062 142.898438 131.121094 150.945312 144.980469 160.308594 C 158.65625 169.546875 171.507812 180.148438 183.179688 191.820312 C 194.851562 203.492188 205.453125 216.34375 214.691406 230.019531 C 224.054688 243.878906 232.101562 258.710938 238.613281 274.101562 C 245.265625 289.828125 250.371094 306.28125 253.792969 323.007812 C 257.285156 340.0625 259.054688 357.554688 259.054688 375 L 261.023438 375 C 261.023438 357.421875 259.238281 339.796875 255.722656 322.613281 C 252.273438 305.757812 247.128906 289.179688 240.425781 273.335938 " fillOpacity="1" fillRule="nonzero" />
  <path fill="#c2cddacd" d="M 224.289062 280.160156 C 218.167969 265.691406 210.605469 251.753906 201.804688 238.726562 C 193.121094 225.871094 183.152344 213.789062 172.179688 202.816406 C 161.210938 191.847656 149.128906 181.878906 136.273438 173.195312 C 123.246094 164.394531 109.308594 156.832031 94.839844 150.710938 C 80.0625 144.460938 64.597656 139.660156 48.875 136.441406 C 32.84375 133.160156 16.398438 131.5 0 131.5 L 0 133.769531 C 16.246094 133.769531 32.539062 135.417969 48.421875 138.667969 C 63.996094 141.855469 79.3125 146.609375 93.953125 152.800781 C 108.285156 158.867188 122.097656 166.359375 135.003906 175.078125 C 147.734375 183.679688 159.703125 193.554688 170.574219 204.425781 C 181.445312 215.296875 191.320312 227.261719 199.921875 239.996094 C 208.640625 252.902344 216.136719 266.714844 222.199219 281.046875 C 228.390625 295.6875 233.144531 311.003906 236.332031 326.578125 C 239.582031 342.460938 241.230469 358.753906 241.230469 375 L 243.5 375 C 243.5 358.601562 241.835938 342.15625 238.558594 326.125 C 235.339844 310.402344 230.539062 294.9375 224.289062 280.160156 " fillOpacity="1" fillRule="nonzero" />
  <path fill="#c2cddacd" d="M 272.699219 259.6875 C 265.257812 242.089844 256.058594 225.140625 245.359375 209.300781 C 234.804688 193.675781 222.6875 178.988281 209.347656 165.648438 C 196.011719 152.3125 181.324219 140.195312 165.699219 129.640625 C 149.859375 118.941406 132.910156 109.742188 115.316406 102.300781 C 97.339844 94.699219 78.535156 88.859375 59.414062 84.949219 C 39.921875 80.957031 19.933594 78.933594 0 78.933594 L 0 80.300781 C 19.839844 80.300781 39.738281 82.3125 59.140625 86.28125 C 78.171875 90.175781 96.894531 95.988281 114.785156 103.554688 C 132.296875 110.964844 149.167969 120.121094 164.9375 130.769531 C 180.488281 141.277344 195.109375 153.335938 208.386719 166.613281 C 221.660156 179.890625 233.722656 194.507812 244.230469 210.0625 C 254.878906 225.828125 264.035156 242.703125 271.445312 260.21875 C 279.011719 278.105469 284.824219 296.828125 288.71875 315.859375 C 292.6875 335.261719 294.699219 355.160156 294.699219 375 L 296.066406 375 C 296.066406 355.066406 294.042969 335.078125 290.050781 315.585938 C 286.140625 296.46875 280.300781 277.660156 272.699219 259.6875 " fillOpacity="1" fillRule="nonzero" />
  <path fill="#c2cddacd" d="M 216.222656 283.574219 C 210.324219 269.625 203.03125 256.1875 194.546875 243.628906 C 186.175781 231.238281 176.566406 219.589844 165.988281 209.011719 C 155.410156 198.433594 143.761719 188.824219 131.371094 180.453125 C 118.8125 171.96875 105.375 164.675781 91.425781 158.777344 C 77.179688 152.753906 62.273438 148.125 47.121094 145.027344 C 31.664062 141.863281 15.8125 140.257812 0 140.257812 L 0 142.683594 C 15.648438 142.683594 31.335938 144.269531 46.632812 147.402344 C 61.632812 150.46875 76.382812 155.050781 90.480469 161.011719 C 104.285156 166.847656 117.585938 174.066406 130.011719 182.460938 C 142.277344 190.75 153.804688 200.257812 164.273438 210.726562 C 174.742188 221.195312 184.25 232.722656 192.535156 244.988281 C 200.933594 257.414062 208.152344 270.714844 213.988281 284.519531 C 219.949219 298.617188 224.53125 313.367188 227.597656 328.367188 C 230.730469 343.664062 232.316406 359.351562 232.316406 375 L 234.742188 375 C 234.742188 359.191406 233.136719 343.335938 229.972656 327.878906 C 226.875 312.726562 222.246094 297.820312 216.222656 283.574219 " fillOpacity="1" fillRule="nonzero" />
  <path fill="#c2cddacd" d="M 232.359375 276.75 C 226.019531 261.757812 218.183594 247.316406 209.0625 233.820312 C 200.070312 220.503906 189.742188 207.992188 178.375 196.625 C 167.007812 185.253906 154.492188 174.929688 141.179688 165.9375 C 127.683594 156.816406 113.242188 148.984375 98.25 142.640625 C 82.941406 136.167969 66.917969 131.191406 50.632812 127.859375 C 34.023438 124.460938 16.988281 122.738281 0 122.738281 L 0 124.859375 C 16.847656 124.859375 33.738281 126.566406 50.207031 129.9375 C 66.355469 133.242188 82.242188 138.175781 97.425781 144.59375 C 112.289062 150.882812 126.609375 158.652344 139.992188 167.695312 C 153.195312 176.613281 165.605469 186.851562 176.875 198.121094 C 188.148438 209.394531 198.386719 221.804688 207.304688 235.007812 C 216.347656 248.390625 224.117188 262.710938 230.40625 277.574219 C 236.824219 292.757812 241.757812 308.640625 245.0625 324.792969 C 248.433594 341.261719 250.140625 358.15625 250.140625 375 L 252.261719 375 C 252.261719 358.011719 250.539062 340.976562 247.140625 324.367188 C 243.808594 308.078125 238.832031 292.058594 232.359375 276.75 " fillOpacity="1" fillRule="nonzero" />
  <path fill="#c2cddacd" d="M 264.632812 263.097656 C 257.410156 246.023438 248.484375 229.574219 238.101562 214.203125 C 227.855469 199.039062 216.097656 184.789062 203.152344 171.84375 C 190.210938 158.902344 175.957031 147.144531 160.796875 136.898438 C 145.425781 126.515625 128.976562 117.589844 111.902344 110.367188 C 94.460938 102.992188 76.210938 97.328125 57.65625 93.53125 C 38.742188 89.660156 19.34375 87.695312 0 87.695312 L 0 89.210938 C 19.242188 89.210938 38.539062 91.164062 57.355469 95.015625 C 75.808594 98.789062 93.964844 104.425781 111.3125 111.765625 C 128.292969 118.945312 144.660156 127.824219 159.945312 138.152344 C 175.03125 148.34375 189.207031 160.039062 202.082031 172.914062 C 214.957031 185.792969 226.65625 199.96875 236.84375 215.054688 C 247.171875 230.339844 256.054688 246.707031 263.234375 263.6875 C 270.574219 281.035156 276.210938 299.191406 279.984375 317.648438 C 283.835938 336.460938 285.789062 355.757812 285.789062 375 L 287.304688 375 C 287.304688 355.65625 285.339844 336.257812 281.46875 317.34375 C 277.671875 298.789062 272.007812 280.539062 264.632812 263.097656 " fillOpacity="1" fillRule="nonzero" />
  <path fill="#c2cddacd" d="M 248.496094 269.921875 C 241.714844 253.890625 233.332031 238.445312 223.582031 224.011719 C 213.964844 209.773438 202.921875 196.390625 190.765625 184.234375 C 178.613281 172.078125 165.226562 161.039062 150.988281 151.417969 C 136.554688 141.667969 121.109375 133.285156 105.078125 126.503906 C 88.703125 119.578125 71.566406 114.257812 54.144531 110.695312 C 36.382812 107.058594 18.164062 105.214844 0 105.214844 L 0 107.035156 C 18.042969 107.035156 36.136719 108.863281 53.78125 112.476562 C 71.082031 116.015625 88.105469 121.300781 104.371094 128.179688 C 120.292969 134.914062 135.632812 143.238281 149.96875 152.921875 C 164.113281 162.480469 177.40625 173.445312 189.480469 185.519531 C 201.554688 197.59375 212.523438 210.886719 222.078125 225.03125 C 231.761719 239.367188 240.085938 254.707031 246.820312 270.632812 C 253.699219 286.898438 258.984375 303.917969 262.523438 321.21875 C 266.136719 338.863281 267.964844 356.957031 267.964844 375 L 269.785156 375 C 269.785156 356.835938 267.941406 338.617188 264.304688 320.855469 C 260.742188 303.433594 255.421875 286.300781 248.496094 269.921875 " fillOpacity="1" fillRule="nonzero" />
  <path fill="#c2cddacd" d="M 256.5625 266.511719 C 249.5625 249.960938 240.910156 234.011719 230.839844 219.109375 C 220.910156 204.40625 209.507812 190.589844 196.957031 178.039062 C 184.410156 165.492188 170.59375 154.089844 155.890625 144.15625 C 140.988281 134.089844 125.042969 125.4375 108.488281 118.4375 C 91.582031 111.285156 73.886719 105.792969 55.902344 102.113281 C 37.5625 98.359375 18.753906 96.457031 0 96.457031 L 0 98.125 C 18.640625 98.125 37.339844 100.015625 55.566406 103.746094 C 73.445312 107.402344 91.035156 112.863281 107.839844 119.972656 C 124.292969 126.929688 140.144531 135.53125 154.957031 145.539062 C 169.570312 155.414062 183.308594 166.742188 195.78125 179.21875 C 208.257812 191.691406 219.585938 205.429688 229.460938 220.042969 C 239.464844 234.855469 248.070312 250.707031 255.027344 267.160156 C 262.136719 283.96875 267.597656 301.554688 271.253906 319.433594 C 274.984375 337.664062 276.875 356.359375 276.875 375 L 278.542969 375 C 278.542969 356.246094 276.640625 337.4375 272.886719 319.097656 C 269.207031 301.113281 263.714844 283.417969 256.5625 266.511719 " fillOpacity="1" fillRule="nonzero" />
  <path fill="#c2cddacd" d="M 381.621094 -45.597656 C 384.367188 -39.113281 387.757812 -32.859375 391.707031 -27.019531 C 395.601562 -21.25 400.074219 -15.832031 404.996094 -10.90625 C 409.921875 -5.984375 415.339844 -1.511719 421.105469 2.382812 C 426.949219 6.328125 433.199219 9.722656 439.6875 12.464844 C 446.3125 15.269531 453.242188 17.417969 460.289062 18.863281 C 467.480469 20.332031 474.859375 21.078125 482.21875 21.078125 L 482.21875 19.082031 C 474.992188 19.082031 467.75 18.347656 460.691406 16.90625 C 453.773438 15.488281 446.96875 13.375 440.464844 10.625 C 434.097656 7.933594 427.960938 4.601562 422.226562 0.726562 C 416.5625 -3.097656 411.242188 -7.488281 406.410156 -12.320312 C 401.574219 -17.152344 397.183594 -22.476562 393.359375 -28.136719 C 389.488281 -33.871094 386.15625 -40.007812 383.460938 -46.375 C 380.710938 -52.878906 378.601562 -59.683594 377.183594 -66.601562 C 375.738281 -73.660156 375.007812 -80.90625 375.007812 -88.132812 L 373.007812 -88.132812 C 373.007812 -80.769531 373.757812 -73.390625 375.226562 -66.199219 C 376.667969 -59.152344 378.820312 -52.222656 381.621094 -45.597656 " fillOpacity="1" fillRule="nonzero" />
  <path fill="#c2cddacd" d="M 371.949219 -41.507812 C 374.957031 -34.394531 378.675781 -27.542969 383.003906 -21.136719 C 387.273438 -14.816406 392.171875 -8.878906 397.570312 -3.480469 C 402.964844 1.914062 408.90625 6.816406 415.226562 11.085938 C 421.628906 15.414062 428.484375 19.132812 435.59375 22.140625 C 442.859375 25.210938 450.457031 27.570312 458.183594 29.152344 C 466.066406 30.765625 474.152344 31.582031 482.21875 31.582031 L 482.21875 29.765625 C 474.273438 29.765625 466.3125 28.960938 458.546875 27.371094 C 450.9375 25.816406 443.453125 23.492188 436.304688 20.464844 C 429.300781 17.503906 422.550781 13.84375 416.242188 9.582031 C 410.019531 5.375 404.167969 0.550781 398.855469 -4.765625 C 393.539062 -10.078125 388.710938 -15.929688 384.507812 -22.15625 C 380.246094 -28.460938 376.585938 -35.210938 373.621094 -42.214844 C 370.597656 -49.367188 368.273438 -56.851562 366.71875 -64.460938 C 365.128906 -72.222656 364.324219 -80.1875 364.324219 -88.132812 L 362.507812 -88.132812 C 362.507812 -80.066406 363.324219 -71.976562 364.9375 -64.09375 C 366.519531 -56.371094 368.878906 -48.769531 371.949219 -41.507812 " fillOpacity="1" fillRule="nonzero" />
  <path fill="#c2cddacd" d="M 367.113281 -39.460938 C 370.253906 -32.039062 374.132812 -24.882812 378.648438 -18.199219 C 383.109375 -11.601562 388.222656 -5.398438 393.855469 0.234375 C 399.488281 5.867188 405.691406 10.980469 412.285156 15.4375 C 418.972656 19.953125 426.125 23.835938 433.550781 26.976562 C 441.132812 30.183594 449.066406 32.644531 457.132812 34.296875 C 465.359375 35.980469 473.800781 36.835938 482.21875 36.835938 L 482.21875 35.109375 C 473.914062 35.109375 465.589844 34.265625 457.476562 32.605469 C 449.523438 30.980469 441.699219 28.550781 434.222656 25.386719 C 426.902344 22.289062 419.84375 18.460938 413.253906 14.007812 C 406.746094 9.613281 400.632812 4.566406 395.074219 -0.988281 C 389.519531 -6.542969 384.476562 -12.65625 380.078125 -19.164062 C 375.625 -25.757812 371.796875 -32.8125 368.703125 -40.132812 C 365.539062 -47.609375 363.109375 -55.433594 361.484375 -63.386719 C 359.820312 -71.503906 358.980469 -79.828125 358.980469 -88.132812 L 357.253906 -88.132812 C 357.253906 -79.710938 358.109375 -71.269531 359.792969 -63.042969 C 361.441406 -54.976562 363.90625 -47.042969 367.113281 -39.460938 " fillOpacity="1" fillRule="nonzero" />
  <path fill="#c2cddacd" d="M 376.785156 -43.554688 C 379.660156 -36.753906 383.21875 -30.203125 387.351562 -24.078125 C 391.4375 -18.035156 396.125 -12.355469 401.285156 -7.195312 C 406.441406 -2.035156 412.125 2.652344 418.167969 6.734375 C 424.289062 10.871094 430.84375 14.425781 437.640625 17.304688 C 444.585938 20.238281 451.851562 22.496094 459.238281 24.007812 C 466.773438 25.546875 474.507812 26.332031 482.21875 26.332031 L 482.21875 24.421875 C 474.632812 24.421875 467.03125 23.65625 459.617188 22.136719 C 452.355469 20.652344 445.210938 18.433594 438.382812 15.546875 C 431.699219 12.71875 425.253906 9.222656 419.234375 5.15625 C 413.292969 1.140625 407.707031 -3.46875 402.632812 -8.542969 C 397.558594 -13.617188 392.949219 -19.203125 388.933594 -25.144531 C 384.867188 -31.167969 381.371094 -37.609375 378.542969 -44.296875 C 375.65625 -51.121094 373.4375 -58.265625 371.949219 -65.53125 C 370.433594 -72.941406 369.664062 -80.546875 369.664062 -88.132812 L 367.757812 -88.132812 C 367.757812 -80.417969 368.539062 -72.683594 370.082031 -65.148438 C 371.59375 -57.761719 373.847656 -50.496094 376.785156 -43.554688 " fillOpacity="1" fillRule="nonzero" />
  <path fill="#c2cddacd" d="M 362.277344 -37.414062 C 365.546875 -29.679688 369.59375 -22.222656 374.296875 -15.257812 C 378.941406 -8.382812 384.273438 -1.921875 390.140625 3.945312 C 396.011719 9.816406 402.472656 15.144531 409.347656 19.789062 C 416.3125 24.496094 423.765625 28.539062 431.503906 31.8125 C 439.40625 35.15625 447.671875 37.722656 456.078125 39.441406 C 464.652344 41.195312 473.445312 42.085938 482.21875 42.085938 L 482.21875 40.453125 C 473.558594 40.453125 464.871094 39.574219 456.40625 37.839844 C 448.105469 36.140625 439.941406 33.609375 432.140625 30.308594 C 424.5 27.078125 417.140625 23.082031 410.261719 18.433594 C 403.472656 13.851562 397.09375 8.585938 391.296875 2.789062 C 385.503906 -3.003906 380.238281 -9.382812 375.652344 -16.171875 C 371.007812 -23.050781 367.011719 -30.414062 363.78125 -38.050781 C 360.480469 -45.855469 357.945312 -54.019531 356.246094 -62.316406 C 354.515625 -70.785156 353.636719 -79.46875 353.636719 -88.132812 L 352.003906 -88.132812 C 352.003906 -79.359375 352.890625 -70.5625 354.648438 -61.988281 C 356.367188 -53.585938 358.933594 -45.316406 362.277344 -37.414062 " fillOpacity="1" fillRule="nonzero" />
  <path fill="#c2cddacd" d="M 299.375 -10.8125 C 304.363281 0.988281 310.535156 12.351562 317.707031 22.972656 C 324.785156 33.449219 332.90625 43.296875 341.851562 52.238281 C 350.792969 61.179688 360.636719 69.304688 371.113281 76.378906 C 381.734375 83.554688 393.101562 89.722656 404.898438 94.714844 C 416.953125 99.8125 429.566406 103.726562 442.386719 106.351562 C 455.457031 109.027344 468.859375 110.382812 482.21875 110.382812 L 482.21875 109.878906 C 468.890625 109.878906 455.523438 108.527344 442.488281 105.859375 C 429.699219 103.242188 417.117188 99.335938 405.09375 94.25 C 393.328125 89.273438 381.988281 83.121094 371.394531 75.964844 C 360.945312 68.90625 351.125 60.804688 342.207031 51.882812 C 333.285156 42.964844 325.183594 33.144531 318.125 22.691406 C 310.96875 12.097656 304.8125 0.761719 299.839844 -11.007812 C 294.753906 -23.027344 290.847656 -35.609375 288.230469 -48.398438 C 285.5625 -61.433594 284.210938 -74.804688 284.210938 -88.132812 L 283.707031 -88.132812 C 283.707031 -74.769531 285.0625 -61.367188 287.738281 -48.296875 C 290.363281 -35.476562 294.277344 -22.863281 299.375 -10.8125 " fillOpacity="1" fillRule="nonzero" />
  <path fill="#c2cddacd" d="M 304.214844 -12.859375 C 309.074219 -1.375 315.078125 9.691406 322.066406 20.03125 C 328.953125 30.230469 336.863281 39.8125 345.570312 48.519531 C 354.273438 57.226562 363.859375 65.132812 374.058594 72.023438 C 384.398438 79.007812 395.460938 85.011719 406.949219 89.871094 C 418.679688 94.832031 430.957031 98.644531 443.441406 101.199219 C 456.164062 103.804688 469.210938 105.125 482.21875 105.125 L 482.21875 104.542969 C 469.25 104.542969 456.242188 103.226562 443.558594 100.628906 C 431.113281 98.082031 418.871094 94.285156 407.175781 89.335938 C 395.722656 84.492188 384.691406 78.507812 374.382812 71.542969 C 364.214844 64.671875 354.660156 56.789062 345.980469 48.109375 C 337.300781 39.429688 329.414062 29.875 322.546875 19.707031 C 315.582031 9.398438 309.597656 -1.632812 304.753906 -13.085938 C 299.804688 -24.785156 296.003906 -37.023438 293.457031 -49.46875 C 290.863281 -62.152344 289.546875 -75.160156 289.546875 -88.132812 L 288.964844 -88.132812 C 288.964844 -75.121094 290.285156 -62.074219 292.890625 -49.351562 C 295.441406 -36.871094 299.253906 -24.59375 304.214844 -12.859375 " fillOpacity="1" fillRule="nonzero" />
  <path fill="#c2cddacd" d="M 309.058594 -14.90625 C 313.785156 -3.734375 319.625 7.03125 326.421875 17.085938 C 333.121094 27.007812 340.816406 36.332031 349.285156 44.800781 C 357.753906 53.273438 367.078125 60.964844 377 67.667969 C 387.058594 74.460938 397.824219 80.304688 408.996094 85.03125 C 420.410156 89.855469 432.351562 93.5625 444.496094 96.046875 C 456.871094 98.582031 469.566406 99.867188 482.21875 99.867188 L 482.21875 99.207031 C 469.609375 99.207031 456.960938 97.925781 444.628906 95.402344 C 432.527344 92.925781 420.625 89.230469 409.253906 84.421875 C 398.121094 79.710938 387.394531 73.894531 377.371094 67.121094 C 367.484375 60.441406 358.191406 52.777344 349.753906 44.335938 C 341.3125 35.894531 333.648438 26.605469 326.96875 16.71875 C 320.195312 6.695312 314.375 -4.03125 309.667969 -15.164062 C 304.855469 -26.539062 301.160156 -38.441406 298.6875 -50.539062 C 296.164062 -62.871094 294.882812 -75.519531 294.882812 -88.132812 L 294.222656 -88.132812 C 294.222656 -75.476562 295.507812 -62.785156 298.039062 -50.40625 C 300.523438 -38.265625 304.230469 -26.320312 309.058594 -14.90625 " fillOpacity="1" fillRule="nonzero" />
  <path fill="#c2cddacd" d="M 294.53125 -8.761719 C 299.652344 3.347656 305.984375 15.015625 313.351562 25.917969 C 320.617188 36.671875 328.953125 46.777344 338.132812 55.957031 C 347.3125 65.136719 357.417969 73.472656 368.171875 80.738281 C 379.074219 88.101562 390.742188 94.433594 402.851562 99.554688 C 415.222656 104.789062 428.171875 108.808594 441.332031 111.5 C 454.75 114.246094 468.503906 115.640625 482.21875 115.640625 L 482.21875 115.214844 C 468.535156 115.214844 454.804688 113.828125 441.417969 111.085938 C 428.285156 108.398438 415.363281 104.386719 403.015625 99.167969 C 390.929688 94.054688 379.289062 87.738281 368.410156 80.386719 C 357.675781 73.136719 347.589844 64.816406 338.429688 55.65625 C 329.273438 46.496094 320.953125 36.410156 313.703125 25.679688 C 306.351562 14.800781 300.035156 3.15625 294.921875 -8.925781 C 289.699219 -21.273438 285.691406 -34.195312 283.003906 -47.328125 C 280.261719 -60.714844 278.875 -74.445312 278.875 -88.132812 L 278.449219 -88.132812 C 278.449219 -74.414062 279.84375 -60.660156 282.585938 -47.242188 C 285.28125 -34.082031 289.300781 -21.136719 294.53125 -8.761719 " fillOpacity="1" fillRule="nonzero" />
  <g clip-path="url(#6bf017037f)">
    <path fill="#c2cddacd" d="M 275.164062 -0.570312 C 280.816406 12.792969 287.800781 25.664062 295.925781 37.691406 C 303.9375 49.554688 313.136719 60.703125 323.261719 70.828125 C 333.386719 80.953125 344.535156 90.148438 356.398438 98.164062 C 368.425781 106.289062 381.296875 113.273438 394.660156 118.925781 C 408.308594 124.699219 422.59375 129.132812 437.117188 132.105469 C 451.917969 135.132812 467.09375 136.667969 482.21875 136.667969 L 482.21875 136.5625 C 467.101562 136.5625 451.933594 135.027344 437.140625 132 C 422.625 129.027344 408.347656 124.597656 394.703125 118.824219 C 381.347656 113.175781 368.480469 106.195312 356.460938 98.074219 C 344.601562 90.0625 333.457031 80.871094 323.339844 70.75 C 313.21875 60.628906 304.023438 49.488281 296.015625 37.628906 C 287.894531 25.609375 280.914062 12.742188 275.265625 -0.613281 C 269.492188 -14.257812 265.0625 -28.535156 262.089844 -43.050781 C 259.0625 -57.84375 257.527344 -73.011719 257.527344 -88.132812 L 257.417969 -88.132812 C 257.417969 -73.003906 258.957031 -57.828125 261.984375 -43.027344 C 264.953125 -28.507812 269.390625 -14.222656 275.164062 -0.570312 " fillOpacity="1" fillRule="nonzero" />
  </g>
  <path fill="#c2cddacd" d="M 280.003906 -2.617188 C 285.523438 10.429688 292.34375 23 300.28125 34.746094 C 308.109375 46.332031 317.089844 57.222656 326.976562 67.109375 C 336.867188 76.996094 347.757812 85.980469 359.34375 93.808594 C 371.085938 101.742188 383.65625 108.5625 396.707031 114.082031 C 410.039062 119.722656 423.988281 124.054688 438.171875 126.957031 C 452.625 129.914062 467.445312 131.414062 482.21875 131.414062 L 482.21875 131.226562 C 467.457031 131.226562 452.652344 129.726562 438.207031 126.769531 C 424.039062 123.871094 410.101562 119.542969 396.78125 113.910156 C 383.742188 108.398438 371.179688 101.578125 359.445312 93.652344 C 347.871094 85.832031 336.992188 76.855469 327.113281 66.976562 C 317.230469 57.097656 308.257812 46.21875 300.4375 34.640625 C 292.507812 22.90625 285.691406 10.347656 280.179688 -2.691406 C 274.542969 -16.011719 270.21875 -29.949219 267.316406 -44.121094 C 264.363281 -58.5625 262.863281 -73.367188 262.863281 -88.132812 L 262.675781 -88.132812 C 262.675781 -73.355469 264.175781 -58.535156 267.132812 -44.082031 C 270.035156 -29.898438 274.367188 -15.949219 280.003906 -2.617188 " fillOpacity="1" fillRule="nonzero" />
  <path fill="#c2cddacd" d="M 289.691406 -6.714844 C 294.945312 5.707031 301.4375 17.679688 308.996094 28.859375 C 316.445312 39.890625 325 50.257812 334.414062 59.671875 C 343.832031 69.089844 354.199219 77.640625 365.226562 85.09375 C 376.410156 92.648438 388.378906 99.144531 400.804688 104.398438 C 413.496094 109.765625 426.777344 113.890625 440.277344 116.652344 C 454.039062 119.46875 468.152344 120.898438 482.21875 120.898438 L 482.21875 120.550781 C 468.175781 120.550781 454.085938 119.125 440.347656 116.316406 C 426.867188 113.554688 413.609375 109.441406 400.9375 104.082031 C 388.535156 98.835938 376.585938 92.351562 365.421875 84.808594 C 354.410156 77.367188 344.058594 68.828125 334.660156 59.429688 C 325.257812 50.03125 316.71875 39.679688 309.28125 28.667969 C 301.738281 17.503906 295.253906 5.554688 290.007812 -6.847656 C 284.648438 -19.519531 280.53125 -32.78125 277.773438 -46.257812 C 274.964844 -60 273.535156 -74.085938 273.535156 -88.132812 L 273.191406 -88.132812 C 273.191406 -74.0625 274.621094 -59.953125 277.4375 -46.191406 C 280.199219 -32.6875 284.320312 -19.40625 289.691406 -6.714844 " fillOpacity="1" fillRule="nonzero" />
  <path fill="#c2cddacd" d="M 313.902344 -16.957031 C 318.496094 -6.097656 324.171875 4.367188 330.777344 14.144531 C 337.292969 23.789062 344.769531 32.851562 353.003906 41.085938 C 361.234375 49.316406 370.300781 56.796875 379.945312 63.3125 C 389.722656 69.914062 400.183594 75.59375 411.042969 80.1875 C 422.136719 84.878906 433.746094 88.480469 445.550781 90.898438 C 457.582031 93.359375 469.917969 94.609375 482.21875 94.609375 L 482.21875 93.871094 C 469.96875 93.871094 457.679688 92.625 445.695312 90.175781 C 433.941406 87.769531 422.382812 84.179688 411.332031 79.503906 C 400.515625 74.933594 390.09375 69.277344 380.359375 62.699219 C 370.753906 56.210938 361.726562 48.761719 353.527344 40.5625 C 345.328125 32.363281 337.878906 23.335938 331.390625 13.730469 C 324.8125 3.992188 319.15625 -6.425781 314.582031 -17.242188 C 309.910156 -28.292969 306.320312 -39.855469 303.914062 -51.609375 C 301.460938 -63.589844 300.21875 -75.878906 300.21875 -88.132812 L 299.480469 -88.132812 C 299.480469 -75.828125 300.730469 -63.492188 303.191406 -51.460938 C 305.605469 -39.660156 309.210938 -28.050781 313.902344 -16.957031 " fillOpacity="1" fillRule="nonzero" />
  <path fill="#c2cddacd" d="M 357.4375 -35.371094 C 360.84375 -27.320312 365.050781 -19.566406 369.945312 -12.320312 C 374.777344 -5.167969 380.324219 1.554688 386.429688 7.660156 C 392.535156 13.765625 399.253906 19.308594 406.40625 24.140625 C 413.652344 29.039062 421.410156 33.246094 429.457031 36.652344 C 437.679688 40.125 446.28125 42.796875 455.027344 44.585938 C 463.945312 46.410156 473.09375 47.335938 482.21875 47.335938 L 482.21875 45.792969 C 473.199219 45.792969 464.152344 44.878906 455.335938 43.074219 C 446.691406 41.304688 438.1875 38.664062 430.058594 35.226562 C 422.101562 31.863281 414.4375 27.703125 407.269531 22.863281 C 400.199219 18.085938 393.554688 12.605469 387.519531 6.566406 C 381.484375 0.53125 376.003906 -6.113281 371.226562 -13.183594 C 366.386719 -20.347656 362.226562 -28.015625 358.859375 -35.972656 C 355.421875 -44.097656 352.785156 -52.601562 351.015625 -61.246094 C 349.210938 -70.0625 348.292969 -79.109375 348.292969 -88.132812 L 346.75 -88.132812 C 346.75 -79.003906 347.675781 -69.855469 349.503906 -60.9375 C 351.292969 -52.191406 353.960938 -43.589844 357.4375 -35.371094 " fillOpacity="1" fillRule="nonzero" />
  <path fill="#c2cddacd" d="M 284.847656 -4.667969 C 290.234375 8.070312 296.894531 20.339844 304.636719 31.804688 C 312.277344 43.113281 321.046875 53.738281 330.695312 63.390625 C 340.347656 73.042969 350.976562 81.8125 362.285156 89.453125 C 373.75 97.195312 386.019531 103.855469 398.753906 109.242188 C 411.765625 114.746094 425.382812 118.972656 439.226562 121.804688 C 453.332031 124.691406 467.796875 126.15625 482.21875 126.15625 L 482.21875 125.886719 C 467.816406 125.886719 453.367188 124.425781 439.277344 121.542969 C 425.453125 118.714844 411.855469 114.492188 398.859375 108.996094 C 386.136719 103.617188 373.882812 96.964844 362.433594 89.230469 C 351.140625 81.601562 340.523438 72.84375 330.886719 63.203125 C 321.246094 53.5625 312.488281 42.949219 304.859375 31.65625 C 297.121094 20.207031 290.472656 7.949219 285.09375 -4.769531 C 279.597656 -17.765625 275.375 -31.363281 272.546875 -45.1875 C 269.664062 -59.28125 268.199219 -73.726562 268.199219 -88.132812 L 267.933594 -88.132812 C 267.933594 -73.710938 269.398438 -59.242188 272.285156 -45.136719 C 275.117188 -31.292969 279.34375 -17.679688 284.847656 -4.667969 " fillOpacity="1" fillRule="nonzero" />
  <path fill="#c2cddacd" d="M 338.089844 -27.1875 C 342.023438 -17.890625 346.886719 -8.929688 352.539062 -0.558594 C 358.121094 7.699219 364.523438 15.464844 371.574219 22.511719 C 378.625 29.5625 386.386719 35.96875 394.648438 41.546875 C 403.019531 47.203125 411.976562 52.066406 421.273438 55.996094 C 430.773438 60.015625 440.710938 63.101562 450.8125 65.167969 C 461.117188 67.273438 471.683594 68.34375 482.21875 68.34375 L 482.21875 67.164062 C 471.761719 67.164062 461.277344 66.101562 451.050781 64.011719 C 441.023438 61.957031 431.160156 58.898438 421.734375 54.910156 C 412.507812 51.007812 403.617188 46.183594 395.308594 40.570312 C 387.109375 35.03125 379.40625 28.675781 372.410156 21.679688 C 365.414062 14.683594 359.054688 6.976562 353.519531 -1.21875 C 347.90625 -9.527344 343.082031 -18.417969 339.179688 -27.644531 C 335.191406 -37.070312 332.128906 -46.933594 330.078125 -56.960938 C 327.984375 -67.1875 326.925781 -77.671875 326.925781 -88.132812 L 325.746094 -88.132812 C 325.746094 -77.59375 326.8125 -67.027344 328.921875 -56.726562 C 330.988281 -46.621094 334.074219 -36.683594 338.089844 -27.1875 " fillOpacity="1" fillRule="nonzero" />
  <path fill="#c2cddacd" d="M 347.765625 -31.277344 C 351.433594 -22.605469 355.96875 -14.246094 361.242188 -6.4375 C 366.449219 1.265625 372.425781 8.507812 379.003906 15.085938 C 385.578125 21.664062 392.820312 27.640625 400.527344 32.84375 C 408.335938 38.121094 416.695312 42.65625 425.367188 46.324219 C 434.226562 50.070312 443.496094 52.949219 452.917969 54.875 C 462.53125 56.84375 472.386719 57.839844 482.21875 57.839844 L 482.21875 56.480469 C 472.480469 56.480469 462.714844 55.492188 453.191406 53.542969 C 443.855469 51.632812 434.671875 48.78125 425.898438 45.070312 C 417.304688 41.433594 409.027344 36.941406 401.289062 31.714844 C 393.65625 26.558594 386.480469 20.640625 379.964844 14.125 C 373.449219 7.605469 367.53125 0.433594 362.371094 -7.199219 C 357.144531 -14.9375 352.652344 -23.214844 349.019531 -31.808594 C 345.308594 -40.585938 342.457031 -49.769531 340.546875 -59.105469 C 338.597656 -68.625 337.609375 -78.390625 337.609375 -88.132812 L 336.246094 -88.132812 C 336.246094 -78.300781 337.246094 -68.441406 339.210938 -58.832031 C 341.140625 -49.40625 344.019531 -40.136719 347.765625 -31.277344 " fillOpacity="1" fillRule="nonzero" />
  <path fill="#c2cddacd" d="M 318.742188 -19.003906 C 323.203125 -8.457031 328.71875 1.707031 335.132812 11.199219 C 341.460938 20.566406 348.726562 29.371094 356.722656 37.367188 C 364.71875 45.363281 373.519531 52.625 382.886719 58.953125 C 392.382812 65.367188 402.546875 70.882812 413.089844 75.34375 C 423.867188 79.902344 435.140625 83.402344 446.601562 85.746094 C 458.289062 88.136719 470.269531 89.351562 482.21875 89.351562 L 482.21875 88.53125 C 470.324219 88.53125 458.398438 87.328125 446.765625 84.945312 C 435.359375 82.613281 424.136719 79.128906 413.410156 74.589844 C 402.910156 70.152344 392.796875 64.664062 383.34375 58.277344 C 374.023438 51.976562 365.257812 44.75 357.296875 36.789062 C 349.339844 28.832031 342.109375 20.066406 335.8125 10.742188 C 329.425781 1.292969 323.9375 -8.824219 319.496094 -19.320312 C 314.960938 -30.046875 311.476562 -41.269531 309.140625 -52.679688 C 306.761719 -64.308594 305.554688 -76.238281 305.554688 -88.132812 L 304.738281 -88.132812 C 304.738281 -76.183594 305.949219 -64.199219 308.34375 -52.515625 C 310.6875 -41.054688 314.1875 -29.777344 318.742188 -19.003906 " fillOpacity="1" fillRule="nonzero" />
  <path fill="#c2cddacd" d="M 352.601562 -33.324219 C 356.136719 -24.964844 360.511719 -16.90625 365.59375 -9.378906 C 370.613281 -1.949219 376.375 5.03125 382.714844 11.371094 C 389.058594 17.714844 396.039062 23.476562 403.46875 28.492188 C 410.996094 33.578125 419.050781 37.949219 427.414062 41.488281 C 435.953125 45.097656 444.886719 47.871094 453.972656 49.730469 C 463.238281 51.628906 472.742188 52.589844 482.21875 52.589844 L 482.21875 51.136719 C 472.839844 51.136719 463.433594 50.183594 454.265625 48.308594 C 445.273438 46.46875 436.429688 43.722656 427.976562 40.148438 C 419.703125 36.648438 411.730469 32.320312 404.28125 27.289062 C 396.929688 22.320312 390.019531 16.621094 383.742188 10.34375 C 377.46875 4.070312 371.765625 -2.839844 366.800781 -10.191406 C 361.765625 -17.640625 357.441406 -25.617188 353.941406 -33.890625 C 350.367188 -42.339844 347.621094 -51.183594 345.78125 -60.175781 C 343.902344 -69.34375 342.953125 -78.75 342.953125 -88.132812 L 341.5 -88.132812 C 341.5 -78.652344 342.460938 -69.148438 344.355469 -59.882812 C 346.214844 -50.800781 348.988281 -41.863281 352.601562 -33.324219 " fillOpacity="1" fillRule="nonzero" />
  <path fill="#c2cddacd" d="M 342.929688 -29.230469 C 346.726562 -20.246094 351.425781 -11.589844 356.894531 -3.5 C 362.285156 4.484375 368.476562 11.984375 375.289062 18.800781 C 382.101562 25.613281 389.605469 31.804688 397.585938 37.195312 C 405.675781 42.664062 414.335938 47.359375 423.320312 51.160156 C 432.5 55.042969 442.101562 58.023438 451.867188 60.023438 C 461.824219 62.058594 472.035156 63.09375 482.21875 63.09375 L 482.21875 61.820312 C 472.121094 61.820312 461.996094 60.796875 452.121094 58.777344 C 442.441406 56.796875 432.917969 53.839844 423.816406 49.988281 C 414.90625 46.222656 406.320312 41.5625 398.300781 36.144531 C 390.382812 30.796875 382.945312 24.660156 376.1875 17.902344 C 369.429688 11.144531 363.292969 3.703125 357.945312 -4.210938 C 352.527344 -12.230469 347.867188 -20.816406 344.097656 -29.726562 C 340.25 -38.828125 337.292969 -48.351562 335.3125 -58.03125 C 333.292969 -67.90625 332.265625 -78.03125 332.265625 -88.132812 L 330.996094 -88.132812 C 330.996094 -77.945312 332.027344 -67.734375 334.066406 -57.777344 C 336.066406 -48.015625 339.046875 -38.410156 342.929688 -29.230469 " fillOpacity="1" fillRule="nonzero" />
  <path fill="#c2cddacd" d="M 323.582031 -21.050781 C 327.910156 -10.816406 333.261719 -0.953125 339.484375 8.261719 C 345.628906 17.351562 352.675781 25.894531 360.433594 33.65625 C 368.195312 41.414062 376.738281 48.460938 385.828125 54.601562 C 395.042969 60.828125 404.902344 66.179688 415.136719 70.507812 C 425.59375 74.929688 436.535156 78.324219 447.65625 80.601562 C 458.996094 82.921875 470.625 84.097656 482.21875 84.097656 L 482.21875 83.191406 C 470.683594 83.191406 459.117188 82.019531 447.835938 79.710938 C 436.773438 77.449219 425.890625 74.070312 415.492188 69.671875 C 405.3125 65.363281 395.5 60.042969 386.335938 53.851562 C 377.292969 47.742188 368.796875 40.730469 361.078125 33.011719 C 353.359375 25.292969 346.347656 16.796875 340.238281 7.753906 C 334.046875 -1.414062 328.722656 -11.222656 324.417969 -21.402344 C 320.019531 -31.804688 316.640625 -42.6875 314.375 -53.75 C 312.066406 -65.027344 310.898438 -76.597656 310.898438 -88.132812 L 309.988281 -88.132812 C 309.988281 -76.535156 311.167969 -64.90625 313.488281 -53.566406 C 315.761719 -42.445312 319.160156 -31.503906 323.582031 -21.050781 " fillOpacity="1" fillRule="nonzero" />
  <path fill="#c2cddacd" d="M 333.253906 -25.140625 C 337.320312 -15.53125 342.34375 -6.269531 348.1875 2.382812 C 353.957031 10.917969 360.574219 18.941406 367.863281 26.226562 C 375.148438 33.511719 383.171875 40.132812 391.707031 45.898438 C 400.359375 51.746094 409.621094 56.769531 419.230469 60.835938 C 429.046875 64.988281 439.320312 68.175781 449.761719 70.3125 C 460.410156 72.492188 471.328125 73.597656 482.21875 73.597656 L 482.21875 72.507812 C 471.402344 72.507812 460.554688 71.410156 449.980469 69.246094 C 439.605469 67.121094 429.402344 63.953125 419.652344 59.832031 C 410.109375 55.792969 400.910156 50.800781 392.316406 44.996094 C 383.839844 39.269531 375.871094 32.695312 368.632812 25.457031 C 361.394531 18.21875 354.820312 10.25 349.089844 1.769531 C 343.285156 -6.824219 338.296875 -16.019531 334.257812 -25.566406 C 330.132812 -35.316406 326.96875 -45.519531 324.84375 -55.890625 C 322.679688 -66.46875 321.582031 -77.3125 321.582031 -88.132812 L 320.492188 -88.132812 C 320.492188 -77.242188 321.597656 -66.320312 323.777344 -55.671875 C 325.914062 -45.230469 329.101562 -34.957031 333.253906 -25.140625 " fillOpacity="1" fillRule="nonzero" />
  <path fill="#c2cddacd" d="M 328.417969 -23.09375 C 332.613281 -13.171875 337.800781 -3.613281 343.839844 5.320312 C 349.792969 14.132812 356.625 22.417969 364.148438 29.941406 C 371.671875 37.464844 379.953125 44.296875 388.769531 50.25 C 397.699219 56.285156 407.261719 61.472656 417.183594 65.671875 C 427.320312 69.957031 437.925781 73.25 448.707031 75.457031 C 459.703125 77.707031 470.976562 78.847656 482.21875 78.847656 L 482.21875 77.847656 C 471.042969 77.847656 459.835938 76.714844 448.910156 74.476562 C 438.191406 72.285156 427.648438 69.011719 417.574219 64.75 C 407.710938 60.578125 398.207031 55.421875 389.328125 49.421875 C 380.566406 43.503906 372.332031 36.710938 364.855469 29.234375 C 357.375 21.753906 350.582031 13.523438 344.664062 4.761719 C 338.667969 -4.117188 333.511719 -13.621094 329.335938 -23.484375 C 325.074219 -33.558594 321.804688 -44.101562 319.609375 -54.820312 C 317.375 -65.75 316.242188 -76.957031 316.242188 -88.132812 L 315.242188 -88.132812 C 315.242188 -76.886719 316.382812 -65.613281 318.632812 -54.621094 C 320.839844 -43.835938 324.128906 -33.230469 328.417969 -23.09375 " fillOpacity="1" fillRule="nonzero" />
</svg>