<svg xmlns="http://www.w3.org/2000/svg" xmlns:xlink="http://www.w3.org/1999/xlink" width="1366" zoomAndPan="magnify" viewBox="0 0 1024.5 576" height="768" preserveAspectRatio="xMidYMid meet" version="1.0"><defs><g/><clipPath id="03948f9e53"><path d="M 974 259 L 1024 259 L 1024 325 L 974 325 Z M 974 259 " clip-rule="nonzero"/></clipPath></defs><g fill="#174ba6" fill-opacity="0.4"><g transform="translate(4.173989, 324.713943)"><g><path d="M 5.140625 -3.09375 C 7.328125 -3.15625 8.882812 -3.648438 9.8125 -4.578125 C 10.75 -5.515625 11.28125 -6.625 11.40625 -7.90625 C 11.53125 -9.1875 11.59375 -11.414062 11.59375 -14.59375 L 11.59375 -55 C 11.59375 -57.625 11.6875 -59.867188 11.875 -61.734375 L 5.140625 -61.359375 L 5.140625 -65.484375 L 48.546875 -65.484375 L 49.015625 -49.109375 L 45.9375 -49.109375 C 45.9375 -54.222656 44.78125 -57.710938 42.46875 -59.578125 C 40.164062 -61.453125 37.015625 -62.328125 33.015625 -62.203125 L 26.1875 -62.015625 C 24.007812 -61.953125 22.46875 -61.453125 21.5625 -60.515625 C 20.65625 -59.585938 20.125 -58.453125 19.96875 -57.109375 C 19.8125 -55.765625 19.734375 -53.566406 19.734375 -50.515625 L 19.734375 -34.421875 L 36.015625 -34.328125 L 35.359375 -42.46875 L 39.484375 -42.46875 L 39.484375 -22.734375 L 36.484375 -22.734375 C 36.484375 -25.097656 36.21875 -26.875 35.6875 -28.0625 C 35.15625 -29.25 34.328125 -30.0625 33.203125 -30.5 C 32.085938 -30.9375 30.53125 -31.15625 28.53125 -31.15625 C 27.15625 -31.15625 26.09375 -31.125 25.34375 -31.0625 L 19.734375 -30.78125 L 19.734375 -11.125 C 19.734375 -7.820312 19.640625 -5.359375 19.453125 -3.734375 L 29 -4.109375 L 29 0 L 5.140625 0 Z M 5.140625 -3.09375 "/></g></g></g><g fill="#174ba6" fill-opacity="0.4"><g transform="translate(55.437996, 324.713943)"><g><path d="M -0.5625 -3.09375 C 1 -3.09375 2.242188 -3.445312 3.171875 -4.15625 C 4.109375 -4.875 4.875 -5.8125 5.46875 -6.96875 C 6.0625 -8.125 6.765625 -9.851562 7.578125 -12.15625 L 8.515625 -14.78125 L 27.78125 -67.265625 L 30.03125 -67.265625 L 50.890625 -14.03125 C 51.578125 -12.34375 52.171875 -10.515625 52.671875 -8.546875 C 53.171875 -6.585938 53.390625 -4.984375 53.328125 -3.734375 L 59.6875 -4.109375 L 59.6875 0 L 38.265625 0 L 38.265625 -3.09375 C 41.941406 -3.15625 43.78125 -4.648438 43.78125 -7.578125 C 43.78125 -8.765625 43.46875 -10.226562 42.84375 -11.96875 L 39.578125 -20.765625 L 15.25 -20.203125 C 14.3125 -17.648438 13.21875 -14.316406 11.96875 -10.203125 C 11.34375 -8.140625 10.566406 -5.984375 9.640625 -3.734375 L 16.9375 -4.109375 L 16.9375 0 L -0.5625 0 Z M 38.265625 -24.234375 L 31.625 -42.09375 L 27.40625 -53.609375 L 27.21875 -53.609375 L 23.296875 -43.03125 L 18.234375 -28.8125 L 16.65625 -24.234375 Z M 38.265625 -24.234375 "/></g></g></g><g fill="#174ba6" fill-opacity="0.4"><g transform="translate(113.998717, 324.713943)"><g><path d="M 27.03125 1.5 C 24.101562 1.5 21.15625 1.09375 18.1875 0.28125 C 15.226562 -0.53125 12.628906 -1.71875 10.390625 -3.28125 L 10.84375 0.75 L 5.984375 0.75 L 5.421875 -19.171875 L 9.078125 -19.171875 C 9.390625 -13.804688 11.226562 -9.675781 14.59375 -6.78125 C 17.957031 -3.882812 22.226562 -2.4375 27.40625 -2.4375 C 31.207031 -2.4375 34.398438 -3.476562 36.984375 -5.5625 C 39.578125 -7.65625 40.875 -10.507812 40.875 -14.125 C 40.875 -16.800781 40.140625 -19.09375 38.671875 -21 C 37.210938 -22.90625 35.40625 -24.492188 33.25 -25.765625 C 31.101562 -27.046875 28.191406 -28.53125 24.515625 -30.21875 C 20.328125 -32.207031 17 -33.953125 14.53125 -35.453125 C 12.070312 -36.953125 9.96875 -38.929688 8.21875 -41.390625 C 6.476562 -43.859375 5.609375 -46.898438 5.609375 -50.515625 C 5.609375 -53.003906 6.1875 -55.492188 7.34375 -57.984375 C 8.5 -60.484375 10.492188 -62.609375 13.328125 -64.359375 C 16.171875 -66.109375 19.929688 -66.984375 24.609375 -66.984375 C 27.410156 -66.984375 30.226562 -66.625 33.0625 -65.90625 C 35.90625 -65.1875 38.507812 -63.953125 40.875 -62.203125 L 40.5 -66.234375 L 45.28125 -66.234375 L 45.28125 -45.65625 L 41.90625 -45.65625 C 41.59375 -50.582031 40.015625 -54.742188 37.171875 -58.140625 C 34.335938 -61.535156 30.363281 -63.234375 25.25 -63.234375 C 21.507812 -63.234375 18.578125 -62.1875 16.453125 -60.09375 C 14.335938 -58.007812 13.28125 -55.410156 13.28125 -52.296875 C 13.28125 -49.796875 14 -47.640625 15.4375 -45.828125 C 16.875 -44.023438 18.617188 -42.53125 20.671875 -41.34375 C 22.734375 -40.164062 25.632812 -38.703125 29.375 -36.953125 C 33.613281 -35.015625 37.023438 -33.265625 39.609375 -31.703125 C 42.203125 -30.148438 44.398438 -28.109375 46.203125 -25.578125 C 48.015625 -23.054688 48.921875 -19.957031 48.921875 -16.28125 C 48.921875 -12.78125 48.0625 -9.691406 46.34375 -7.015625 C 44.632812 -4.335938 42.125 -2.25 38.8125 -0.75 C 35.507812 0.75 31.582031 1.5 27.03125 1.5 Z M 27.03125 1.5 "/></g></g></g><g fill="#174ba6" fill-opacity="0.4"><g transform="translate(167.040129, 324.713943)"><g><path d="M 19.453125 -3.09375 C 22.140625 -3.21875 23.867188 -3.960938 24.640625 -5.328125 C 25.421875 -6.703125 25.8125 -8.820312 25.8125 -11.6875 L 25.8125 -14.59375 L 25.90625 -62.015625 L 16.28125 -61.921875 C 12.414062 -61.921875 9.65625 -60.625 8 -58.03125 C 6.34375 -55.445312 5.515625 -51.351562 5.515625 -45.75 L 2.0625 -45.75 L 2.625 -65.484375 L 57.15625 -65.484375 L 57.71875 -45.75 L 54.15625 -45.75 C 54.09375 -49.675781 53.703125 -52.804688 52.984375 -55.140625 C 52.273438 -57.484375 51.0625 -59.226562 49.34375 -60.375 C 47.625 -61.53125 45.175781 -62.109375 42 -62.109375 L 34.046875 -62.109375 L 33.953125 -11.125 C 33.953125 -7.820312 33.859375 -5.359375 33.671875 -3.734375 L 41.4375 -4.109375 L 41.4375 0 L 19.453125 0 Z M 19.453125 -3.09375 "/></g></g></g><g fill="#174ba6" fill-opacity="0.4"><g transform="translate(226.910507, 324.713943)"><g/></g></g><g fill="#174ba6" fill-opacity="0.4"><g transform="translate(251.513496, 324.713943)"><g><path d="M -0.5625 -3.09375 C 1 -3.09375 2.242188 -3.445312 3.171875 -4.15625 C 4.109375 -4.875 4.875 -5.8125 5.46875 -6.96875 C 6.0625 -8.125 6.765625 -9.851562 7.578125 -12.15625 L 8.515625 -14.78125 L 27.78125 -67.265625 L 30.03125 -67.265625 L 50.890625 -14.03125 C 51.578125 -12.34375 52.171875 -10.515625 52.671875 -8.546875 C 53.171875 -6.585938 53.390625 -4.984375 53.328125 -3.734375 L 59.6875 -4.109375 L 59.6875 0 L 38.265625 0 L 38.265625 -3.09375 C 41.941406 -3.15625 43.78125 -4.648438 43.78125 -7.578125 C 43.78125 -8.765625 43.46875 -10.226562 42.84375 -11.96875 L 39.578125 -20.765625 L 15.25 -20.203125 C 14.3125 -17.648438 13.21875 -14.316406 11.96875 -10.203125 C 11.34375 -8.140625 10.566406 -5.984375 9.640625 -3.734375 L 16.9375 -4.109375 L 16.9375 0 L -0.5625 0 Z M 38.265625 -24.234375 L 31.625 -42.09375 L 27.40625 -53.609375 L 27.21875 -53.609375 L 23.296875 -43.03125 L 18.234375 -28.8125 L 16.65625 -24.234375 Z M 38.265625 -24.234375 "/></g></g></g><g fill="#174ba6" fill-opacity="0.4"><g transform="translate(310.074216, 324.713943)"><g><path d="M 15.71875 -53.046875 L 15.625 -53.046875 L 15.90625 -13 C 15.90625 -8.820312 15.84375 -5.734375 15.71875 -3.734375 L 22.453125 -4.109375 L 22.453125 0 L 5.328125 0 L 5.328125 -3.09375 C 7.828125 -3.09375 9.476562 -3.804688 10.28125 -5.234375 C 11.09375 -6.671875 11.5 -8.421875 11.5 -10.484375 L 11.59375 -61.734375 L 5.328125 -61.359375 L 5.328125 -65.484375 L 16.46875 -65.484375 L 56.3125 -12.15625 L 56.40625 -12.15625 L 56.5 -55 C 56.5 -57.625 56.59375 -59.867188 56.78125 -61.734375 L 50.046875 -61.359375 L 50.046875 -65.484375 L 67.265625 -65.484375 L 67.265625 -62.390625 C 65.390625 -62.328125 64 -61.96875 63.09375 -61.3125 C 62.1875 -60.664062 61.609375 -59.78125 61.359375 -58.65625 C 61.117188 -57.53125 61 -56.03125 61 -54.15625 L 61 -50.890625 L 60.8125 1.5 L 56.3125 1.5 Z M 15.71875 -53.046875 "/></g></g></g><g fill="#174ba6" fill-opacity="0.4"><g transform="translate(381.357385, 324.713943)"><g><path d="M 5.140625 -3.09375 C 7.328125 -3.15625 8.882812 -3.648438 9.8125 -4.578125 C 10.75 -5.515625 11.28125 -6.625 11.40625 -7.90625 C 11.53125 -9.1875 11.59375 -11.414062 11.59375 -14.59375 L 11.59375 -55 C 11.59375 -57.625 11.6875 -59.867188 11.875 -61.734375 L 5.140625 -61.359375 L 5.140625 -65.484375 L 27.21875 -65.578125 C 38.945312 -65.640625 48.238281 -62.894531 55.09375 -57.34375 C 61.957031 -51.789062 65.390625 -43.554688 65.390625 -32.640625 C 65.390625 -26.785156 64.015625 -21.363281 61.265625 -16.375 C 58.523438 -11.382812 54.472656 -7.40625 49.109375 -4.4375 C 43.742188 -1.476562 37.289062 0 29.75 0 L 5.140625 0 Z M 29.46875 -3.5625 C 34.707031 -3.5625 39.351562 -4.835938 43.40625 -7.390625 C 47.457031 -9.941406 50.601562 -13.460938 52.84375 -17.953125 C 55.09375 -22.453125 56.21875 -27.472656 56.21875 -33.015625 C 56.21875 -42.128906 53.722656 -49.253906 48.734375 -54.390625 C 43.742188 -59.535156 36.226562 -62.109375 26.1875 -62.109375 C 24.007812 -62.109375 22.453125 -61.671875 21.515625 -60.796875 C 20.578125 -59.929688 20.046875 -58.859375 19.921875 -57.578125 C 19.796875 -56.296875 19.734375 -54.066406 19.734375 -50.890625 L 19.734375 -11.03125 C 19.734375 -7.789062 19.640625 -5.359375 19.453125 -3.734375 C 21.640625 -3.617188 24.976562 -3.5625 29.46875 -3.5625 Z M 29.46875 -3.5625 "/></g></g></g><g fill="#174ba6" fill-opacity="0.4"><g transform="translate(451.050274, 324.713943)"><g/></g></g><g fill="#174ba6" fill-opacity="0.4"><g transform="translate(475.653244, 324.713943)"><g><path d="M 5.140625 -3.09375 C 7.328125 -3.15625 8.882812 -3.648438 9.8125 -4.578125 C 10.75 -5.515625 11.28125 -6.625 11.40625 -7.90625 C 11.53125 -9.1875 11.59375 -11.414062 11.59375 -14.59375 L 11.59375 -55 C 11.59375 -57.625 11.6875 -59.867188 11.875 -61.734375 L 5.140625 -61.359375 L 5.140625 -65.484375 L 50.140625 -65.484375 L 50.609375 -49.109375 L 47.515625 -49.109375 C 47.515625 -54.222656 46.40625 -57.710938 44.1875 -59.578125 C 41.976562 -61.453125 38.878906 -62.328125 34.890625 -62.203125 L 26.84375 -62.015625 C 24.601562 -61.953125 22.984375 -61.53125 21.984375 -60.75 C 20.984375 -59.976562 20.359375 -58.890625 20.109375 -57.484375 C 19.859375 -56.078125 19.734375 -53.878906 19.734375 -50.890625 L 19.734375 -35.921875 L 37.328125 -35.828125 L 36.671875 -43.875 L 40.78125 -43.875 L 40.78125 -24.234375 L 37.703125 -24.234375 C 37.703125 -26.535156 37.421875 -28.296875 36.859375 -29.515625 C 36.296875 -30.734375 35.4375 -31.539062 34.28125 -31.9375 C 33.125 -32.34375 31.519531 -32.546875 29.46875 -32.546875 L 26.5625 -32.453125 L 19.734375 -32.1875 L 19.734375 -10.765625 C 19.734375 -7.515625 19.640625 -5.082031 19.453125 -3.46875 L 37.328125 -3.734375 C 41.691406 -3.796875 45.023438 -4.90625 47.328125 -7.0625 C 49.640625 -9.21875 50.796875 -12.941406 50.796875 -18.234375 L 53.96875 -18.234375 L 53.421875 0 L 5.140625 0 Z M 5.140625 -3.09375 "/></g></g></g><g fill="#174ba6" fill-opacity="0.4"><g transform="translate(533.839769, 324.713943)"><g><path d="M -0.5625 -3.09375 C 1 -3.09375 2.242188 -3.445312 3.171875 -4.15625 C 4.109375 -4.875 4.875 -5.8125 5.46875 -6.96875 C 6.0625 -8.125 6.765625 -9.851562 7.578125 -12.15625 L 8.515625 -14.78125 L 27.78125 -67.265625 L 30.03125 -67.265625 L 50.890625 -14.03125 C 51.578125 -12.34375 52.171875 -10.515625 52.671875 -8.546875 C 53.171875 -6.585938 53.390625 -4.984375 53.328125 -3.734375 L 59.6875 -4.109375 L 59.6875 0 L 38.265625 0 L 38.265625 -3.09375 C 41.941406 -3.15625 43.78125 -4.648438 43.78125 -7.578125 C 43.78125 -8.765625 43.46875 -10.226562 42.84375 -11.96875 L 39.578125 -20.765625 L 15.25 -20.203125 C 14.3125 -17.648438 13.21875 -14.316406 11.96875 -10.203125 C 11.34375 -8.140625 10.566406 -5.984375 9.640625 -3.734375 L 16.9375 -4.109375 L 16.9375 0 L -0.5625 0 Z M 38.265625 -24.234375 L 31.625 -42.09375 L 27.40625 -53.609375 L 27.21875 -53.609375 L 23.296875 -43.03125 L 18.234375 -28.8125 L 16.65625 -24.234375 Z M 38.265625 -24.234375 "/></g></g></g><g fill="#174ba6" fill-opacity="0.4"><g transform="translate(592.400508, 324.713943)"><g><path d="M 27.03125 1.5 C 24.101562 1.5 21.15625 1.09375 18.1875 0.28125 C 15.226562 -0.53125 12.628906 -1.71875 10.390625 -3.28125 L 10.84375 0.75 L 5.984375 0.75 L 5.421875 -19.171875 L 9.078125 -19.171875 C 9.390625 -13.804688 11.226562 -9.675781 14.59375 -6.78125 C 17.957031 -3.882812 22.226562 -2.4375 27.40625 -2.4375 C 31.207031 -2.4375 34.398438 -3.476562 36.984375 -5.5625 C 39.578125 -7.65625 40.875 -10.507812 40.875 -14.125 C 40.875 -16.800781 40.140625 -19.09375 38.671875 -21 C 37.210938 -22.90625 35.40625 -24.492188 33.25 -25.765625 C 31.101562 -27.046875 28.191406 -28.53125 24.515625 -30.21875 C 20.328125 -32.207031 17 -33.953125 14.53125 -35.453125 C 12.070312 -36.953125 9.96875 -38.929688 8.21875 -41.390625 C 6.476562 -43.859375 5.609375 -46.898438 5.609375 -50.515625 C 5.609375 -53.003906 6.1875 -55.492188 7.34375 -57.984375 C 8.5 -60.484375 10.492188 -62.609375 13.328125 -64.359375 C 16.171875 -66.109375 19.929688 -66.984375 24.609375 -66.984375 C 27.410156 -66.984375 30.226562 -66.625 33.0625 -65.90625 C 35.90625 -65.1875 38.507812 -63.953125 40.875 -62.203125 L 40.5 -66.234375 L 45.28125 -66.234375 L 45.28125 -45.65625 L 41.90625 -45.65625 C 41.59375 -50.582031 40.015625 -54.742188 37.171875 -58.140625 C 34.335938 -61.535156 30.363281 -63.234375 25.25 -63.234375 C 21.507812 -63.234375 18.578125 -62.1875 16.453125 -60.09375 C 14.335938 -58.007812 13.28125 -55.410156 13.28125 -52.296875 C 13.28125 -49.796875 14 -47.640625 15.4375 -45.828125 C 16.875 -44.023438 18.617188 -42.53125 20.671875 -41.34375 C 22.734375 -40.164062 25.632812 -38.703125 29.375 -36.953125 C 33.613281 -35.015625 37.023438 -33.265625 39.609375 -31.703125 C 42.203125 -30.148438 44.398438 -28.109375 46.203125 -25.578125 C 48.015625 -23.054688 48.921875 -19.957031 48.921875 -16.28125 C 48.921875 -12.78125 48.0625 -9.691406 46.34375 -7.015625 C 44.632812 -4.335938 42.125 -2.25 38.8125 -0.75 C 35.507812 0.75 31.582031 1.5 27.03125 1.5 Z M 27.03125 1.5 "/></g></g></g><g fill="#174ba6" fill-opacity="0.4"><g transform="translate(645.441902, 324.713943)"><g><path d="M 20.109375 -3.09375 C 22.796875 -3.21875 24.523438 -3.960938 25.296875 -5.328125 C 26.078125 -6.703125 26.46875 -8.820312 26.46875 -11.6875 L 26.46875 -14.59375 L 26.5625 -25.25 L 10.296875 -50.984375 C 7.421875 -55.410156 5.734375 -58.929688 5.234375 -61.546875 L -0.5625 -61.359375 L -0.5625 -65.484375 L 23.578125 -65.484375 L 23.578125 -62.390625 C 18.710938 -62.390625 16.28125 -61.019531 16.28125 -58.28125 C 16.28125 -56.65625 17.054688 -54.628906 18.609375 -52.203125 L 21.515625 -47.609375 C 25.503906 -41.128906 28.96875 -35.863281 31.90625 -31.8125 L 32.09375 -31.8125 C 34.269531 -36.113281 37.601562 -42.472656 42.09375 -50.890625 L 44.0625 -54.53125 C 45.863281 -57.96875 47.359375 -60.335938 48.546875 -61.640625 L 41.15625 -61.359375 L 41.15625 -65.484375 L 60.25 -65.484375 L 60.25 -62.390625 C 57.3125 -62.203125 54.859375 -61.203125 52.890625 -59.390625 C 50.929688 -57.585938 48.800781 -54.566406 46.5 -50.328125 L 34.703125 -28.0625 C 34.640625 -25.007812 34.59375 -21.765625 34.5625 -18.328125 C 34.53125 -14.898438 34.546875 -12.5 34.609375 -11.125 C 34.609375 -7.820312 34.515625 -5.359375 34.328125 -3.734375 L 42.09375 -4.109375 L 42.09375 0 L 20.109375 0 Z M 20.109375 -3.09375 "/></g></g></g><g fill="#174ba6" fill-opacity="0.4"><g transform="translate(704.751033, 324.713943)"><g/></g></g><g fill="#174ba6" fill-opacity="0.4"><g transform="translate(729.354003, 324.713943)"><g><path d="M 27.03125 1.5 C 24.101562 1.5 21.15625 1.09375 18.1875 0.28125 C 15.226562 -0.53125 12.628906 -1.71875 10.390625 -3.28125 L 10.84375 0.75 L 5.984375 0.75 L 5.421875 -19.171875 L 9.078125 -19.171875 C 9.390625 -13.804688 11.226562 -9.675781 14.59375 -6.78125 C 17.957031 -3.882812 22.226562 -2.4375 27.40625 -2.4375 C 31.207031 -2.4375 34.398438 -3.476562 36.984375 -5.5625 C 39.578125 -7.65625 40.875 -10.507812 40.875 -14.125 C 40.875 -16.800781 40.140625 -19.09375 38.671875 -21 C 37.210938 -22.90625 35.40625 -24.492188 33.25 -25.765625 C 31.101562 -27.046875 28.191406 -28.53125 24.515625 -30.21875 C 20.328125 -32.207031 17 -33.953125 14.53125 -35.453125 C 12.070312 -36.953125 9.96875 -38.929688 8.21875 -41.390625 C 6.476562 -43.859375 5.609375 -46.898438 5.609375 -50.515625 C 5.609375 -53.003906 6.1875 -55.492188 7.34375 -57.984375 C 8.5 -60.484375 10.492188 -62.609375 13.328125 -64.359375 C 16.171875 -66.109375 19.929688 -66.984375 24.609375 -66.984375 C 27.410156 -66.984375 30.226562 -66.625 33.0625 -65.90625 C 35.90625 -65.1875 38.507812 -63.953125 40.875 -62.203125 L 40.5 -66.234375 L 45.28125 -66.234375 L 45.28125 -45.65625 L 41.90625 -45.65625 C 41.59375 -50.582031 40.015625 -54.742188 37.171875 -58.140625 C 34.335938 -61.535156 30.363281 -63.234375 25.25 -63.234375 C 21.507812 -63.234375 18.578125 -62.1875 16.453125 -60.09375 C 14.335938 -58.007812 13.28125 -55.410156 13.28125 -52.296875 C 13.28125 -49.796875 14 -47.640625 15.4375 -45.828125 C 16.875 -44.023438 18.617188 -42.53125 20.671875 -41.34375 C 22.734375 -40.164062 25.632812 -38.703125 29.375 -36.953125 C 33.613281 -35.015625 37.023438 -33.265625 39.609375 -31.703125 C 42.203125 -30.148438 44.398438 -28.109375 46.203125 -25.578125 C 48.015625 -23.054688 48.921875 -19.957031 48.921875 -16.28125 C 48.921875 -12.78125 48.0625 -9.691406 46.34375 -7.015625 C 44.632812 -4.335938 42.125 -2.25 38.8125 -0.75 C 35.507812 0.75 31.582031 1.5 27.03125 1.5 Z M 27.03125 1.5 "/></g></g></g><g fill="#174ba6" fill-opacity="0.4"><g transform="translate(782.395397, 324.713943)"><g><path d="M 37.609375 1.5 C 30.117188 1.5 23.878906 -0.148438 18.890625 -3.453125 C 13.898438 -6.765625 10.21875 -11.023438 7.84375 -16.234375 C 5.476562 -21.441406 4.296875 -26.941406 4.296875 -32.734375 C 4.296875 -38.285156 5.523438 -43.679688 7.984375 -48.921875 C 10.453125 -54.160156 14.132812 -58.476562 19.03125 -61.875 C 23.925781 -65.28125 29.867188 -66.984375 36.859375 -66.984375 C 44.023438 -66.984375 50.117188 -65.28125 55.140625 -61.875 C 60.160156 -58.476562 63.914062 -54.160156 66.40625 -48.921875 C 68.90625 -43.679688 70.15625 -38.285156 70.15625 -32.734375 C 70.15625 -27.253906 68.921875 -21.878906 66.453125 -16.609375 C 63.992188 -11.335938 60.316406 -7 55.421875 -3.59375 C 50.523438 -0.195312 44.585938 1.5 37.609375 1.5 Z M 37.796875 -2.34375 C 42.660156 -2.34375 46.820312 -3.726562 50.28125 -6.5 C 53.738281 -9.28125 56.359375 -12.851562 58.140625 -17.21875 C 59.921875 -21.582031 60.8125 -26.164062 60.8125 -30.96875 C 60.8125 -36.269531 59.84375 -41.398438 57.90625 -46.359375 C 55.96875 -51.316406 53.160156 -55.367188 49.484375 -58.515625 C 45.804688 -61.660156 41.503906 -63.234375 36.578125 -63.234375 C 31.710938 -63.234375 27.53125 -61.84375 24.03125 -59.0625 C 20.539062 -56.289062 17.90625 -52.691406 16.125 -48.265625 C 14.351562 -43.835938 13.46875 -39.222656 13.46875 -34.421875 C 13.46875 -29.492188 14.367188 -24.550781 16.171875 -19.59375 C 17.984375 -14.632812 20.726562 -10.519531 24.40625 -7.25 C 28.09375 -3.976562 32.554688 -2.34375 37.796875 -2.34375 Z M 37.796875 -2.34375 "/></g></g></g><g fill="#174ba6" fill-opacity="0.4"><g transform="translate(856.672056, 324.713943)"><g><path d="M 5.140625 -3.09375 C 7.328125 -3.15625 8.882812 -3.648438 9.8125 -4.578125 C 10.75 -5.515625 11.28125 -6.625 11.40625 -7.90625 C 11.53125 -9.1875 11.59375 -11.414062 11.59375 -14.59375 L 11.59375 -55 C 11.59375 -57.625 11.6875 -59.867188 11.875 -61.734375 L 5.140625 -61.359375 L 5.140625 -65.484375 L 26.1875 -65.484375 L 26.1875 -62.390625 C 24.007812 -62.328125 22.453125 -61.828125 21.515625 -60.890625 C 20.578125 -59.960938 20.046875 -58.859375 19.921875 -57.578125 C 19.796875 -56.296875 19.734375 -54.066406 19.734375 -50.890625 L 19.734375 -10.765625 C 19.734375 -7.515625 19.640625 -5.082031 19.453125 -3.46875 L 36.953125 -3.734375 C 40.941406 -3.796875 43.929688 -5.054688 45.921875 -7.515625 C 47.921875 -9.984375 48.921875 -13.929688 48.921875 -19.359375 L 52.109375 -19.359375 L 51.546875 0 L 5.140625 0 Z M 5.140625 -3.09375 "/></g></g></g><g fill="#174ba6" fill-opacity="0.4"><g transform="translate(910.742483, 324.713943)"><g><path d="M -0.5625 -3.09375 C 1 -3.09375 2.242188 -3.445312 3.171875 -4.15625 C 4.109375 -4.875 4.875 -5.8125 5.46875 -6.96875 C 6.0625 -8.125 6.765625 -9.851562 7.578125 -12.15625 L 8.515625 -14.78125 L 27.78125 -67.265625 L 30.03125 -67.265625 L 50.890625 -14.03125 C 51.578125 -12.34375 52.171875 -10.515625 52.671875 -8.546875 C 53.171875 -6.585938 53.390625 -4.984375 53.328125 -3.734375 L 59.6875 -4.109375 L 59.6875 0 L 38.265625 0 L 38.265625 -3.09375 C 41.941406 -3.15625 43.78125 -4.648438 43.78125 -7.578125 C 43.78125 -8.765625 43.46875 -10.226562 42.84375 -11.96875 L 39.578125 -20.765625 L 15.25 -20.203125 C 14.3125 -17.648438 13.21875 -14.316406 11.96875 -10.203125 C 11.34375 -8.140625 10.566406 -5.984375 9.640625 -3.734375 L 16.9375 -4.109375 L 16.9375 0 L -0.5625 0 Z M 38.265625 -24.234375 L 31.625 -42.09375 L 27.40625 -53.609375 L 27.21875 -53.609375 L 23.296875 -43.03125 L 18.234375 -28.8125 L 16.65625 -24.234375 Z M 38.265625 -24.234375 "/></g></g></g><g clip-path="url(#03948f9e53)"><g fill="#174ba6" fill-opacity="0.4"><g transform="translate(969.303184, 324.713943)"><g><path d="M 5.140625 -3.09375 C 7.328125 -3.15625 8.882812 -3.648438 9.8125 -4.578125 C 10.75 -5.515625 11.28125 -6.625 11.40625 -7.90625 C 11.53125 -9.1875 11.59375 -11.414062 11.59375 -14.59375 L 11.59375 -55 C 11.59375 -57.625 11.6875 -59.867188 11.875 -61.734375 L 5.140625 -61.359375 L 5.140625 -65.484375 C 11.628906 -65.609375 16.523438 -65.671875 19.828125 -65.671875 C 22.828125 -65.671875 25.070312 -65.640625 26.5625 -65.578125 C 35.351562 -65.453125 41.789062 -63.96875 45.875 -61.125 C 49.96875 -58.289062 52.015625 -54.191406 52.015625 -48.828125 C 52.078125 -44.523438 50.796875 -40.660156 48.171875 -37.234375 C 45.554688 -33.804688 41.003906 -31.4375 34.515625 -30.125 C 35.578125 -29.3125 36.546875 -28.34375 37.421875 -27.21875 C 38.296875 -26.09375 39.476562 -24.347656 40.96875 -21.984375 L 47.328125 -11.96875 C 48.703125 -9.789062 49.84375 -8.125 50.75 -6.96875 C 51.65625 -5.8125 52.742188 -4.875 54.015625 -4.15625 C 55.296875 -3.445312 56.875 -3.09375 58.75 -3.09375 L 58.75 0 L 46.953125 0 C 45.273438 -1.4375 43.859375 -2.914062 42.703125 -4.4375 C 41.546875 -5.96875 40.191406 -7.953125 38.640625 -10.390625 L 32.375 -20.390625 L 31.15625 -22.359375 C 30.15625 -24.046875 29.28125 -25.414062 28.53125 -26.46875 C 27.78125 -27.53125 26.96875 -28.46875 26.09375 -29.28125 C 25.53125 -29.21875 24.660156 -29.1875 23.484375 -29.1875 C 21.796875 -29.1875 20.546875 -29.21875 19.734375 -29.28125 L 19.734375 -11.125 C 19.734375 -7.820312 19.640625 -5.359375 19.453125 -3.734375 L 26.1875 -4.109375 L 26.1875 0 L 5.140625 0 Z M 23.859375 -32.734375 C 36.578125 -32.734375 42.9375 -37.753906 42.9375 -47.796875 C 42.9375 -52.535156 41.5625 -56.085938 38.8125 -58.453125 C 36.070312 -60.828125 31.863281 -62.015625 26.1875 -62.015625 C 24.007812 -62.015625 22.453125 -61.578125 21.515625 -60.703125 C 20.578125 -59.835938 20.046875 -58.78125 19.921875 -57.53125 C 19.796875 -56.28125 19.734375 -54.066406 19.734375 -50.890625 L 19.734375 -32.921875 C 21.609375 -32.796875 22.984375 -32.734375 23.859375 -32.734375 Z M 23.859375 -32.734375 "/></g></g></g></g><g fill="#174ba6" fill-opacity="1"><g transform="translate(0.0391576, 320.57911)"><g><path d="M 5.140625 -3.09375 C 7.328125 -3.15625 8.882812 -3.648438 9.8125 -4.578125 C 10.75 -5.515625 11.28125 -6.625 11.40625 -7.90625 C 11.53125 -9.1875 11.59375 -11.414062 11.59375 -14.59375 L 11.59375 -55 C 11.59375 -57.625 11.6875 -59.867188 11.875 -61.734375 L 5.140625 -61.359375 L 5.140625 -65.484375 L 48.546875 -65.484375 L 49.015625 -49.109375 L 45.9375 -49.109375 C 45.9375 -54.222656 44.78125 -57.710938 42.46875 -59.578125 C 40.164062 -61.453125 37.015625 -62.328125 33.015625 -62.203125 L 26.1875 -62.015625 C 24.007812 -61.953125 22.46875 -61.453125 21.5625 -60.515625 C 20.65625 -59.585938 20.125 -58.453125 19.96875 -57.109375 C 19.8125 -55.765625 19.734375 -53.566406 19.734375 -50.515625 L 19.734375 -34.421875 L 36.015625 -34.328125 L 35.359375 -42.46875 L 39.484375 -42.46875 L 39.484375 -22.734375 L 36.484375 -22.734375 C 36.484375 -25.097656 36.21875 -26.875 35.6875 -28.0625 C 35.15625 -29.25 34.328125 -30.0625 33.203125 -30.5 C 32.085938 -30.9375 30.53125 -31.15625 28.53125 -31.15625 C 27.15625 -31.15625 26.09375 -31.125 25.34375 -31.0625 L 19.734375 -30.78125 L 19.734375 -11.125 C 19.734375 -7.820312 19.640625 -5.359375 19.453125 -3.734375 L 29 -4.109375 L 29 0 L 5.140625 0 Z M 5.140625 -3.09375 "/></g></g></g><g fill="#174ba6" fill-opacity="1"><g transform="translate(51.303164, 320.57911)"><g><path d="M -0.5625 -3.09375 C 1 -3.09375 2.242188 -3.445312 3.171875 -4.15625 C 4.109375 -4.875 4.875 -5.8125 5.46875 -6.96875 C 6.0625 -8.125 6.765625 -9.851562 7.578125 -12.15625 L 8.515625 -14.78125 L 27.78125 -67.265625 L 30.03125 -67.265625 L 50.890625 -14.03125 C 51.578125 -12.34375 52.171875 -10.515625 52.671875 -8.546875 C 53.171875 -6.585938 53.390625 -4.984375 53.328125 -3.734375 L 59.6875 -4.109375 L 59.6875 0 L 38.265625 0 L 38.265625 -3.09375 C 41.941406 -3.15625 43.78125 -4.648438 43.78125 -7.578125 C 43.78125 -8.765625 43.46875 -10.226562 42.84375 -11.96875 L 39.578125 -20.765625 L 15.25 -20.203125 C 14.3125 -17.648438 13.21875 -14.316406 11.96875 -10.203125 C 11.34375 -8.140625 10.566406 -5.984375 9.640625 -3.734375 L 16.9375 -4.109375 L 16.9375 0 L -0.5625 0 Z M 38.265625 -24.234375 L 31.625 -42.09375 L 27.40625 -53.609375 L 27.21875 -53.609375 L 23.296875 -43.03125 L 18.234375 -28.8125 L 16.65625 -24.234375 Z M 38.265625 -24.234375 "/></g></g></g><g fill="#174ba6" fill-opacity="1"><g transform="translate(109.863885, 320.57911)"><g><path d="M 27.03125 1.5 C 24.101562 1.5 21.15625 1.09375 18.1875 0.28125 C 15.226562 -0.53125 12.628906 -1.71875 10.390625 -3.28125 L 10.84375 0.75 L 5.984375 0.75 L 5.421875 -19.171875 L 9.078125 -19.171875 C 9.390625 -13.804688 11.226562 -9.675781 14.59375 -6.78125 C 17.957031 -3.882812 22.226562 -2.4375 27.40625 -2.4375 C 31.207031 -2.4375 34.398438 -3.476562 36.984375 -5.5625 C 39.578125 -7.65625 40.875 -10.507812 40.875 -14.125 C 40.875 -16.800781 40.140625 -19.09375 38.671875 -21 C 37.210938 -22.90625 35.40625 -24.492188 33.25 -25.765625 C 31.101562 -27.046875 28.191406 -28.53125 24.515625 -30.21875 C 20.328125 -32.207031 17 -33.953125 14.53125 -35.453125 C 12.070312 -36.953125 9.96875 -38.929688 8.21875 -41.390625 C 6.476562 -43.859375 5.609375 -46.898438 5.609375 -50.515625 C 5.609375 -53.003906 6.1875 -55.492188 7.34375 -57.984375 C 8.5 -60.484375 10.492188 -62.609375 13.328125 -64.359375 C 16.171875 -66.109375 19.929688 -66.984375 24.609375 -66.984375 C 27.410156 -66.984375 30.226562 -66.625 33.0625 -65.90625 C 35.90625 -65.1875 38.507812 -63.953125 40.875 -62.203125 L 40.5 -66.234375 L 45.28125 -66.234375 L 45.28125 -45.65625 L 41.90625 -45.65625 C 41.59375 -50.582031 40.015625 -54.742188 37.171875 -58.140625 C 34.335938 -61.535156 30.363281 -63.234375 25.25 -63.234375 C 21.507812 -63.234375 18.578125 -62.1875 16.453125 -60.09375 C 14.335938 -58.007812 13.28125 -55.410156 13.28125 -52.296875 C 13.28125 -49.796875 14 -47.640625 15.4375 -45.828125 C 16.875 -44.023438 18.617188 -42.53125 20.671875 -41.34375 C 22.734375 -40.164062 25.632812 -38.703125 29.375 -36.953125 C 33.613281 -35.015625 37.023438 -33.265625 39.609375 -31.703125 C 42.203125 -30.148438 44.398438 -28.109375 46.203125 -25.578125 C 48.015625 -23.054688 48.921875 -19.957031 48.921875 -16.28125 C 48.921875 -12.78125 48.0625 -9.691406 46.34375 -7.015625 C 44.632812 -4.335938 42.125 -2.25 38.8125 -0.75 C 35.507812 0.75 31.582031 1.5 27.03125 1.5 Z M 27.03125 1.5 "/></g></g></g><g fill="#174ba6" fill-opacity="1"><g transform="translate(162.905298, 320.57911)"><g><path d="M 19.453125 -3.09375 C 22.140625 -3.21875 23.867188 -3.960938 24.640625 -5.328125 C 25.421875 -6.703125 25.8125 -8.820312 25.8125 -11.6875 L 25.8125 -14.59375 L 25.90625 -62.015625 L 16.28125 -61.921875 C 12.414062 -61.921875 9.65625 -60.625 8 -58.03125 C 6.34375 -55.445312 5.515625 -51.351562 5.515625 -45.75 L 2.0625 -45.75 L 2.625 -65.484375 L 57.15625 -65.484375 L 57.71875 -45.75 L 54.15625 -45.75 C 54.09375 -49.675781 53.703125 -52.804688 52.984375 -55.140625 C 52.273438 -57.484375 51.0625 -59.226562 49.34375 -60.375 C 47.625 -61.53125 45.175781 -62.109375 42 -62.109375 L 34.046875 -62.109375 L 33.953125 -11.125 C 33.953125 -7.820312 33.859375 -5.359375 33.671875 -3.734375 L 41.4375 -4.109375 L 41.4375 0 L 19.453125 0 Z M 19.453125 -3.09375 "/></g></g></g><g fill="#174ba6" fill-opacity="1"><g transform="translate(222.775675, 320.57911)"><g/></g></g><g fill="#174ba6" fill-opacity="1"><g transform="translate(247.378664, 320.57911)"><g><path d="M -0.5625 -3.09375 C 1 -3.09375 2.242188 -3.445312 3.171875 -4.15625 C 4.109375 -4.875 4.875 -5.8125 5.46875 -6.96875 C 6.0625 -8.125 6.765625 -9.851562 7.578125 -12.15625 L 8.515625 -14.78125 L 27.78125 -67.265625 L 30.03125 -67.265625 L 50.890625 -14.03125 C 51.578125 -12.34375 52.171875 -10.515625 52.671875 -8.546875 C 53.171875 -6.585938 53.390625 -4.984375 53.328125 -3.734375 L 59.6875 -4.109375 L 59.6875 0 L 38.265625 0 L 38.265625 -3.09375 C 41.941406 -3.15625 43.78125 -4.648438 43.78125 -7.578125 C 43.78125 -8.765625 43.46875 -10.226562 42.84375 -11.96875 L 39.578125 -20.765625 L 15.25 -20.203125 C 14.3125 -17.648438 13.21875 -14.316406 11.96875 -10.203125 C 11.34375 -8.140625 10.566406 -5.984375 9.640625 -3.734375 L 16.9375 -4.109375 L 16.9375 0 L -0.5625 0 Z M 38.265625 -24.234375 L 31.625 -42.09375 L 27.40625 -53.609375 L 27.21875 -53.609375 L 23.296875 -43.03125 L 18.234375 -28.8125 L 16.65625 -24.234375 Z M 38.265625 -24.234375 "/></g></g></g><g fill="#174ba6" fill-opacity="1"><g transform="translate(305.939385, 320.57911)"><g><path d="M 15.71875 -53.046875 L 15.625 -53.046875 L 15.90625 -13 C 15.90625 -8.820312 15.84375 -5.734375 15.71875 -3.734375 L 22.453125 -4.109375 L 22.453125 0 L 5.328125 0 L 5.328125 -3.09375 C 7.828125 -3.09375 9.476562 -3.804688 10.28125 -5.234375 C 11.09375 -6.671875 11.5 -8.421875 11.5 -10.484375 L 11.59375 -61.734375 L 5.328125 -61.359375 L 5.328125 -65.484375 L 16.46875 -65.484375 L 56.3125 -12.15625 L 56.40625 -12.15625 L 56.5 -55 C 56.5 -57.625 56.59375 -59.867188 56.78125 -61.734375 L 50.046875 -61.359375 L 50.046875 -65.484375 L 67.265625 -65.484375 L 67.265625 -62.390625 C 65.390625 -62.328125 64 -61.96875 63.09375 -61.3125 C 62.1875 -60.664062 61.609375 -59.78125 61.359375 -58.65625 C 61.117188 -57.53125 61 -56.03125 61 -54.15625 L 61 -50.890625 L 60.8125 1.5 L 56.3125 1.5 Z M 15.71875 -53.046875 "/></g></g></g><g fill="#174ba6" fill-opacity="1"><g transform="translate(377.222554, 320.57911)"><g><path d="M 5.140625 -3.09375 C 7.328125 -3.15625 8.882812 -3.648438 9.8125 -4.578125 C 10.75 -5.515625 11.28125 -6.625 11.40625 -7.90625 C 11.53125 -9.1875 11.59375 -11.414062 11.59375 -14.59375 L 11.59375 -55 C 11.59375 -57.625 11.6875 -59.867188 11.875 -61.734375 L 5.140625 -61.359375 L 5.140625 -65.484375 L 27.21875 -65.578125 C 38.945312 -65.640625 48.238281 -62.894531 55.09375 -57.34375 C 61.957031 -51.789062 65.390625 -43.554688 65.390625 -32.640625 C 65.390625 -26.785156 64.015625 -21.363281 61.265625 -16.375 C 58.523438 -11.382812 54.472656 -7.40625 49.109375 -4.4375 C 43.742188 -1.476562 37.289062 0 29.75 0 L 5.140625 0 Z M 29.46875 -3.5625 C 34.707031 -3.5625 39.351562 -4.835938 43.40625 -7.390625 C 47.457031 -9.941406 50.601562 -13.460938 52.84375 -17.953125 C 55.09375 -22.453125 56.21875 -27.472656 56.21875 -33.015625 C 56.21875 -42.128906 53.722656 -49.253906 48.734375 -54.390625 C 43.742188 -59.535156 36.226562 -62.109375 26.1875 -62.109375 C 24.007812 -62.109375 22.453125 -61.671875 21.515625 -60.796875 C 20.578125 -59.929688 20.046875 -58.859375 19.921875 -57.578125 C 19.796875 -56.296875 19.734375 -54.066406 19.734375 -50.890625 L 19.734375 -11.03125 C 19.734375 -7.789062 19.640625 -5.359375 19.453125 -3.734375 C 21.640625 -3.617188 24.976562 -3.5625 29.46875 -3.5625 Z M 29.46875 -3.5625 "/></g></g></g><g fill="#174ba6" fill-opacity="1"><g transform="translate(446.915442, 320.57911)"><g/></g></g><g fill="#174ba6" fill-opacity="1"><g transform="translate(471.518412, 320.57911)"><g><path d="M 5.140625 -3.09375 C 7.328125 -3.15625 8.882812 -3.648438 9.8125 -4.578125 C 10.75 -5.515625 11.28125 -6.625 11.40625 -7.90625 C 11.53125 -9.1875 11.59375 -11.414062 11.59375 -14.59375 L 11.59375 -55 C 11.59375 -57.625 11.6875 -59.867188 11.875 -61.734375 L 5.140625 -61.359375 L 5.140625 -65.484375 L 50.140625 -65.484375 L 50.609375 -49.109375 L 47.515625 -49.109375 C 47.515625 -54.222656 46.40625 -57.710938 44.1875 -59.578125 C 41.976562 -61.453125 38.878906 -62.328125 34.890625 -62.203125 L 26.84375 -62.015625 C 24.601562 -61.953125 22.984375 -61.53125 21.984375 -60.75 C 20.984375 -59.976562 20.359375 -58.890625 20.109375 -57.484375 C 19.859375 -56.078125 19.734375 -53.878906 19.734375 -50.890625 L 19.734375 -35.921875 L 37.328125 -35.828125 L 36.671875 -43.875 L 40.78125 -43.875 L 40.78125 -24.234375 L 37.703125 -24.234375 C 37.703125 -26.535156 37.421875 -28.296875 36.859375 -29.515625 C 36.296875 -30.734375 35.4375 -31.539062 34.28125 -31.9375 C 33.125 -32.34375 31.519531 -32.546875 29.46875 -32.546875 L 26.5625 -32.453125 L 19.734375 -32.1875 L 19.734375 -10.765625 C 19.734375 -7.515625 19.640625 -5.082031 19.453125 -3.46875 L 37.328125 -3.734375 C 41.691406 -3.796875 45.023438 -4.90625 47.328125 -7.0625 C 49.640625 -9.21875 50.796875 -12.941406 50.796875 -18.234375 L 53.96875 -18.234375 L 53.421875 0 L 5.140625 0 Z M 5.140625 -3.09375 "/></g></g></g><g fill="#174ba6" fill-opacity="1"><g transform="translate(529.704937, 320.57911)"><g><path d="M -0.5625 -3.09375 C 1 -3.09375 2.242188 -3.445312 3.171875 -4.15625 C 4.109375 -4.875 4.875 -5.8125 5.46875 -6.96875 C 6.0625 -8.125 6.765625 -9.851562 7.578125 -12.15625 L 8.515625 -14.78125 L 27.78125 -67.265625 L 30.03125 -67.265625 L 50.890625 -14.03125 C 51.578125 -12.34375 52.171875 -10.515625 52.671875 -8.546875 C 53.171875 -6.585938 53.390625 -4.984375 53.328125 -3.734375 L 59.6875 -4.109375 L 59.6875 0 L 38.265625 0 L 38.265625 -3.09375 C 41.941406 -3.15625 43.78125 -4.648438 43.78125 -7.578125 C 43.78125 -8.765625 43.46875 -10.226562 42.84375 -11.96875 L 39.578125 -20.765625 L 15.25 -20.203125 C 14.3125 -17.648438 13.21875 -14.316406 11.96875 -10.203125 C 11.34375 -8.140625 10.566406 -5.984375 9.640625 -3.734375 L 16.9375 -4.109375 L 16.9375 0 L -0.5625 0 Z M 38.265625 -24.234375 L 31.625 -42.09375 L 27.40625 -53.609375 L 27.21875 -53.609375 L 23.296875 -43.03125 L 18.234375 -28.8125 L 16.65625 -24.234375 Z M 38.265625 -24.234375 "/></g></g></g><g fill="#174ba6" fill-opacity="1"><g transform="translate(588.265677, 320.57911)"><g><path d="M 27.03125 1.5 C 24.101562 1.5 21.15625 1.09375 18.1875 0.28125 C 15.226562 -0.53125 12.628906 -1.71875 10.390625 -3.28125 L 10.84375 0.75 L 5.984375 0.75 L 5.421875 -19.171875 L 9.078125 -19.171875 C 9.390625 -13.804688 11.226562 -9.675781 14.59375 -6.78125 C 17.957031 -3.882812 22.226562 -2.4375 27.40625 -2.4375 C 31.207031 -2.4375 34.398438 -3.476562 36.984375 -5.5625 C 39.578125 -7.65625 40.875 -10.507812 40.875 -14.125 C 40.875 -16.800781 40.140625 -19.09375 38.671875 -21 C 37.210938 -22.90625 35.40625 -24.492188 33.25 -25.765625 C 31.101562 -27.046875 28.191406 -28.53125 24.515625 -30.21875 C 20.328125 -32.207031 17 -33.953125 14.53125 -35.453125 C 12.070312 -36.953125 9.96875 -38.929688 8.21875 -41.390625 C 6.476562 -43.859375 5.609375 -46.898438 5.609375 -50.515625 C 5.609375 -53.003906 6.1875 -55.492188 7.34375 -57.984375 C 8.5 -60.484375 10.492188 -62.609375 13.328125 -64.359375 C 16.171875 -66.109375 19.929688 -66.984375 24.609375 -66.984375 C 27.410156 -66.984375 30.226562 -66.625 33.0625 -65.90625 C 35.90625 -65.1875 38.507812 -63.953125 40.875 -62.203125 L 40.5 -66.234375 L 45.28125 -66.234375 L 45.28125 -45.65625 L 41.90625 -45.65625 C 41.59375 -50.582031 40.015625 -54.742188 37.171875 -58.140625 C 34.335938 -61.535156 30.363281 -63.234375 25.25 -63.234375 C 21.507812 -63.234375 18.578125 -62.1875 16.453125 -60.09375 C 14.335938 -58.007812 13.28125 -55.410156 13.28125 -52.296875 C 13.28125 -49.796875 14 -47.640625 15.4375 -45.828125 C 16.875 -44.023438 18.617188 -42.53125 20.671875 -41.34375 C 22.734375 -40.164062 25.632812 -38.703125 29.375 -36.953125 C 33.613281 -35.015625 37.023438 -33.265625 39.609375 -31.703125 C 42.203125 -30.148438 44.398438 -28.109375 46.203125 -25.578125 C 48.015625 -23.054688 48.921875 -19.957031 48.921875 -16.28125 C 48.921875 -12.78125 48.0625 -9.691406 46.34375 -7.015625 C 44.632812 -4.335938 42.125 -2.25 38.8125 -0.75 C 35.507812 0.75 31.582031 1.5 27.03125 1.5 Z M 27.03125 1.5 "/></g></g></g><g fill="#174ba6" fill-opacity="1"><g transform="translate(641.307071, 320.57911)"><g><path d="M 20.109375 -3.09375 C 22.796875 -3.21875 24.523438 -3.960938 25.296875 -5.328125 C 26.078125 -6.703125 26.46875 -8.820312 26.46875 -11.6875 L 26.46875 -14.59375 L 26.5625 -25.25 L 10.296875 -50.984375 C 7.421875 -55.410156 5.734375 -58.929688 5.234375 -61.546875 L -0.5625 -61.359375 L -0.5625 -65.484375 L 23.578125 -65.484375 L 23.578125 -62.390625 C 18.710938 -62.390625 16.28125 -61.019531 16.28125 -58.28125 C 16.28125 -56.65625 17.054688 -54.628906 18.609375 -52.203125 L 21.515625 -47.609375 C 25.503906 -41.128906 28.96875 -35.863281 31.90625 -31.8125 L 32.09375 -31.8125 C 34.269531 -36.113281 37.601562 -42.472656 42.09375 -50.890625 L 44.0625 -54.53125 C 45.863281 -57.96875 47.359375 -60.335938 48.546875 -61.640625 L 41.15625 -61.359375 L 41.15625 -65.484375 L 60.25 -65.484375 L 60.25 -62.390625 C 57.3125 -62.203125 54.859375 -61.203125 52.890625 -59.390625 C 50.929688 -57.585938 48.800781 -54.566406 46.5 -50.328125 L 34.703125 -28.0625 C 34.640625 -25.007812 34.59375 -21.765625 34.5625 -18.328125 C 34.53125 -14.898438 34.546875 -12.5 34.609375 -11.125 C 34.609375 -7.820312 34.515625 -5.359375 34.328125 -3.734375 L 42.09375 -4.109375 L 42.09375 0 L 20.109375 0 Z M 20.109375 -3.09375 "/></g></g></g><g fill="#174ba6" fill-opacity="1"><g transform="translate(700.616201, 320.57911)"><g/></g></g><g fill="#174ba6" fill-opacity="1"><g transform="translate(725.219172, 320.57911)"><g><path d="M 27.03125 1.5 C 24.101562 1.5 21.15625 1.09375 18.1875 0.28125 C 15.226562 -0.53125 12.628906 -1.71875 10.390625 -3.28125 L 10.84375 0.75 L 5.984375 0.75 L 5.421875 -19.171875 L 9.078125 -19.171875 C 9.390625 -13.804688 11.226562 -9.675781 14.59375 -6.78125 C 17.957031 -3.882812 22.226562 -2.4375 27.40625 -2.4375 C 31.207031 -2.4375 34.398438 -3.476562 36.984375 -5.5625 C 39.578125 -7.65625 40.875 -10.507812 40.875 -14.125 C 40.875 -16.800781 40.140625 -19.09375 38.671875 -21 C 37.210938 -22.90625 35.40625 -24.492188 33.25 -25.765625 C 31.101562 -27.046875 28.191406 -28.53125 24.515625 -30.21875 C 20.328125 -32.207031 17 -33.953125 14.53125 -35.453125 C 12.070312 -36.953125 9.96875 -38.929688 8.21875 -41.390625 C 6.476562 -43.859375 5.609375 -46.898438 5.609375 -50.515625 C 5.609375 -53.003906 6.1875 -55.492188 7.34375 -57.984375 C 8.5 -60.484375 10.492188 -62.609375 13.328125 -64.359375 C 16.171875 -66.109375 19.929688 -66.984375 24.609375 -66.984375 C 27.410156 -66.984375 30.226562 -66.625 33.0625 -65.90625 C 35.90625 -65.1875 38.507812 -63.953125 40.875 -62.203125 L 40.5 -66.234375 L 45.28125 -66.234375 L 45.28125 -45.65625 L 41.90625 -45.65625 C 41.59375 -50.582031 40.015625 -54.742188 37.171875 -58.140625 C 34.335938 -61.535156 30.363281 -63.234375 25.25 -63.234375 C 21.507812 -63.234375 18.578125 -62.1875 16.453125 -60.09375 C 14.335938 -58.007812 13.28125 -55.410156 13.28125 -52.296875 C 13.28125 -49.796875 14 -47.640625 15.4375 -45.828125 C 16.875 -44.023438 18.617188 -42.53125 20.671875 -41.34375 C 22.734375 -40.164062 25.632812 -38.703125 29.375 -36.953125 C 33.613281 -35.015625 37.023438 -33.265625 39.609375 -31.703125 C 42.203125 -30.148438 44.398438 -28.109375 46.203125 -25.578125 C 48.015625 -23.054688 48.921875 -19.957031 48.921875 -16.28125 C 48.921875 -12.78125 48.0625 -9.691406 46.34375 -7.015625 C 44.632812 -4.335938 42.125 -2.25 38.8125 -0.75 C 35.507812 0.75 31.582031 1.5 27.03125 1.5 Z M 27.03125 1.5 "/></g></g></g><g fill="#174ba6" fill-opacity="1"><g transform="translate(778.260565, 320.57911)"><g><path d="M 37.609375 1.5 C 30.117188 1.5 23.878906 -0.148438 18.890625 -3.453125 C 13.898438 -6.765625 10.21875 -11.023438 7.84375 -16.234375 C 5.476562 -21.441406 4.296875 -26.941406 4.296875 -32.734375 C 4.296875 -38.285156 5.523438 -43.679688 7.984375 -48.921875 C 10.453125 -54.160156 14.132812 -58.476562 19.03125 -61.875 C 23.925781 -65.28125 29.867188 -66.984375 36.859375 -66.984375 C 44.023438 -66.984375 50.117188 -65.28125 55.140625 -61.875 C 60.160156 -58.476562 63.914062 -54.160156 66.40625 -48.921875 C 68.90625 -43.679688 70.15625 -38.285156 70.15625 -32.734375 C 70.15625 -27.253906 68.921875 -21.878906 66.453125 -16.609375 C 63.992188 -11.335938 60.316406 -7 55.421875 -3.59375 C 50.523438 -0.195312 44.585938 1.5 37.609375 1.5 Z M 37.796875 -2.34375 C 42.660156 -2.34375 46.820312 -3.726562 50.28125 -6.5 C 53.738281 -9.28125 56.359375 -12.851562 58.140625 -17.21875 C 59.921875 -21.582031 60.8125 -26.164062 60.8125 -30.96875 C 60.8125 -36.269531 59.84375 -41.398438 57.90625 -46.359375 C 55.96875 -51.316406 53.160156 -55.367188 49.484375 -58.515625 C 45.804688 -61.660156 41.503906 -63.234375 36.578125 -63.234375 C 31.710938 -63.234375 27.53125 -61.84375 24.03125 -59.0625 C 20.539062 -56.289062 17.90625 -52.691406 16.125 -48.265625 C 14.351562 -43.835938 13.46875 -39.222656 13.46875 -34.421875 C 13.46875 -29.492188 14.367188 -24.550781 16.171875 -19.59375 C 17.984375 -14.632812 20.726562 -10.519531 24.40625 -7.25 C 28.09375 -3.976562 32.554688 -2.34375 37.796875 -2.34375 Z M 37.796875 -2.34375 "/></g></g></g><g fill="#174ba6" fill-opacity="1"><g transform="translate(852.537224, 320.57911)"><g><path d="M 5.140625 -3.09375 C 7.328125 -3.15625 8.882812 -3.648438 9.8125 -4.578125 C 10.75 -5.515625 11.28125 -6.625 11.40625 -7.90625 C 11.53125 -9.1875 11.59375 -11.414062 11.59375 -14.59375 L 11.59375 -55 C 11.59375 -57.625 11.6875 -59.867188 11.875 -61.734375 L 5.140625 -61.359375 L 5.140625 -65.484375 L 26.1875 -65.484375 L 26.1875 -62.390625 C 24.007812 -62.328125 22.453125 -61.828125 21.515625 -60.890625 C 20.578125 -59.960938 20.046875 -58.859375 19.921875 -57.578125 C 19.796875 -56.296875 19.734375 -54.066406 19.734375 -50.890625 L 19.734375 -10.765625 C 19.734375 -7.515625 19.640625 -5.082031 19.453125 -3.46875 L 36.953125 -3.734375 C 40.941406 -3.796875 43.929688 -5.054688 45.921875 -7.515625 C 47.921875 -9.984375 48.921875 -13.929688 48.921875 -19.359375 L 52.109375 -19.359375 L 51.546875 0 L 5.140625 0 Z M 5.140625 -3.09375 "/></g></g></g><g fill="#174ba6" fill-opacity="1"><g transform="translate(906.607652, 320.57911)"><g><path d="M -0.5625 -3.09375 C 1 -3.09375 2.242188 -3.445312 3.171875 -4.15625 C 4.109375 -4.875 4.875 -5.8125 5.46875 -6.96875 C 6.0625 -8.125 6.765625 -9.851562 7.578125 -12.15625 L 8.515625 -14.78125 L 27.78125 -67.265625 L 30.03125 -67.265625 L 50.890625 -14.03125 C 51.578125 -12.34375 52.171875 -10.515625 52.671875 -8.546875 C 53.171875 -6.585938 53.390625 -4.984375 53.328125 -3.734375 L 59.6875 -4.109375 L 59.6875 0 L 38.265625 0 L 38.265625 -3.09375 C 41.941406 -3.15625 43.78125 -4.648438 43.78125 -7.578125 C 43.78125 -8.765625 43.46875 -10.226562 42.84375 -11.96875 L 39.578125 -20.765625 L 15.25 -20.203125 C 14.3125 -17.648438 13.21875 -14.316406 11.96875 -10.203125 C 11.34375 -8.140625 10.566406 -5.984375 9.640625 -3.734375 L 16.9375 -4.109375 L 16.9375 0 L -0.5625 0 Z M 38.265625 -24.234375 L 31.625 -42.09375 L 27.40625 -53.609375 L 27.21875 -53.609375 L 23.296875 -43.03125 L 18.234375 -28.8125 L 16.65625 -24.234375 Z M 38.265625 -24.234375 "/></g></g></g><g fill="#174ba6" fill-opacity="1"><g transform="translate(965.168353, 320.57911)"><g><path d="M 5.140625 -3.09375 C 7.328125 -3.15625 8.882812 -3.648438 9.8125 -4.578125 C 10.75 -5.515625 11.28125 -6.625 11.40625 -7.90625 C 11.53125 -9.1875 11.59375 -11.414062 11.59375 -14.59375 L 11.59375 -55 C 11.59375 -57.625 11.6875 -59.867188 11.875 -61.734375 L 5.140625 -61.359375 L 5.140625 -65.484375 C 11.628906 -65.609375 16.523438 -65.671875 19.828125 -65.671875 C 22.828125 -65.671875 25.070312 -65.640625 26.5625 -65.578125 C 35.351562 -65.453125 41.789062 -63.96875 45.875 -61.125 C 49.96875 -58.289062 52.015625 -54.191406 52.015625 -48.828125 C 52.078125 -44.523438 50.796875 -40.660156 48.171875 -37.234375 C 45.554688 -33.804688 41.003906 -31.4375 34.515625 -30.125 C 35.578125 -29.3125 36.546875 -28.34375 37.421875 -27.21875 C 38.296875 -26.09375 39.476562 -24.347656 40.96875 -21.984375 L 47.328125 -11.96875 C 48.703125 -9.789062 49.84375 -8.125 50.75 -6.96875 C 51.65625 -5.8125 52.742188 -4.875 54.015625 -4.15625 C 55.296875 -3.445312 56.875 -3.09375 58.75 -3.09375 L 58.75 0 L 46.953125 0 C 45.273438 -1.4375 43.859375 -2.914062 42.703125 -4.4375 C 41.546875 -5.96875 40.191406 -7.953125 38.640625 -10.390625 L 32.375 -20.390625 L 31.15625 -22.359375 C 30.15625 -24.046875 29.28125 -25.414062 28.53125 -26.46875 C 27.78125 -27.53125 26.96875 -28.46875 26.09375 -29.28125 C 25.53125 -29.21875 24.660156 -29.1875 23.484375 -29.1875 C 21.796875 -29.1875 20.546875 -29.21875 19.734375 -29.28125 L 19.734375 -11.125 C 19.734375 -7.820312 19.640625 -5.359375 19.453125 -3.734375 L 26.1875 -4.109375 L 26.1875 0 L 5.140625 0 Z M 23.859375 -32.734375 C 36.578125 -32.734375 42.9375 -37.753906 42.9375 -47.796875 C 42.9375 -52.535156 41.5625 -56.085938 38.8125 -58.453125 C 36.070312 -60.828125 31.863281 -62.015625 26.1875 -62.015625 C 24.007812 -62.015625 22.453125 -61.578125 21.515625 -60.703125 C 20.578125 -59.835938 20.046875 -58.78125 19.921875 -57.53125 C 19.796875 -56.28125 19.734375 -54.066406 19.734375 -50.890625 L 19.734375 -32.921875 C 21.609375 -32.796875 22.984375 -32.734375 23.859375 -32.734375 Z M 23.859375 -32.734375 "/></g></g></g></svg>